<?xml version="1.0" encoding="UTF-8" standalone="no"?>
<svg
   xmlns:serif="http://www.serif.com/"
   xmlns:dc="http://purl.org/dc/elements/1.1/"
   xmlns:cc="http://creativecommons.org/ns#"
   xmlns:rdf="http://www.w3.org/1999/02/22-rdf-syntax-ns#"
   xmlns:svg="http://www.w3.org/2000/svg"
   xmlns="http://www.w3.org/2000/svg"
   xmlns:sodipodi="http://sodipodi.sourceforge.net/DTD/sodipodi-0.dtd"
   xmlns:inkscape="http://www.inkscape.org/namespaces/inkscape"
   sodipodi:docname="blooddonations.svg"
   inkscape:version="0.91 r13725"
   id="svg262"
   version="1.1"
   viewBox="0 0 307 220"
   height="220mm"
   width="307mm">
  <title
     id="title304">Ringing telephone</title>
  <defs
     id="defs256" />
  <sodipodi:namedview
     inkscape:window-maximized="1"
     inkscape:window-y="1"
     inkscape:window-x="4"
     inkscape:window-height="1035"
     inkscape:window-width="1916"
     fit-margin-bottom="0"
     fit-margin-right="0"
     fit-margin-left="0"
     fit-margin-top="0"
     inkscape:snap-global="false"
     showgrid="false"
     inkscape:document-rotation="0"
     inkscape:current-layer="g28130"
     inkscape:document-units="mm"
     inkscape:cy="307.38178"
     inkscape:cx="184.42907"
     inkscape:zoom="0.699533"
     inkscape:pageshadow="2"
     inkscape:pageopacity="0.0"
     borderopacity="1.0"
     bordercolor="#666666"
     pagecolor="#ffffff"
     id="base" />
  <metadata
     id="metadata259">
    <rdf:RDF>
      <cc:Work
         rdf:about="">
        <dc:format>image/svg+xml</dc:format>
        <dc:type
           rdf:resource="http://purl.org/dc/dcmitype/StillImage" />
        <dc:title>Ringing telephone</dc:title>
        <cc:license
           rdf:resource="http://creativecommons.org/publicdomain/zero/1.0/" />
        <dc:description>colour remix by j4p4n</dc:description>
      </cc:Work>
      <cc:License
         rdf:about="http://creativecommons.org/publicdomain/zero/1.0/">
        <cc:permits
           rdf:resource="http://creativecommons.org/ns#Reproduction" />
        <cc:permits
           rdf:resource="http://creativecommons.org/ns#Distribution" />
        <cc:permits
           rdf:resource="http://creativecommons.org/ns#DerivativeWorks" />
      </cc:License>
    </rdf:RDF>
  </metadata>
  <g
     transform="translate(421.51581,-90.613869)"
     id="layer1"
     inkscape:groupmode="layer"
     inkscape:label="Lager 1">
    <g
       style="clip-rule:evenodd;fill-rule:evenodd;stroke-linecap:round;stroke-linejoin:round;stroke-miterlimit:1.5"
       id="g28926"
       transform="matrix(0.37927317,0,0,0.37927317,-428.47426,100.48226)">
      <g
         transform="translate(785.7251,161.85539)"
         id="g28130">
        <g
           id="g28101" />
        <g
           id="g29033"
           transform="translate(0,-2.9764532)">
          <g
             transform="matrix(0,0.98222924,-1.4769388,0,533.00307,731.06795)"
             id="layer1-1"
             style="clip-rule:evenodd;fill:#d59879;fill-opacity:1;fill-rule:evenodd;stroke:#413636;stroke-width:6.58866167;stroke-linecap:round;stroke-linejoin:round;stroke-miterlimit:1.5;stroke-dasharray:none;stroke-opacity:1">
            <path
               d="m -499.4158,836.91634 c -1.2952,-34.582 -5.25297,-111.12146 -4.22157,-145.82146 -0.78718,-32.61 1.0556,-65.379 -1.9118,-97.881 -7.9942,-35.684 -28.649,-67.558 -33.231,-104.18 -8.1519,-23.903 -36.036,-39.515 -34.269,-66.926 11.02,-12.373 23.649,16.814 31.726,23.948 5.4675,9.1534 28.763,36.097 30.241,13.962 -7.285,-29.881 -9.9996,-60.526 -10.457,-91.215 11.324,-15.528 18.133,8.6662 17.593,19.211 3.405,18.075 4.3411,37.05 11.662,54.079 10.252,9.391 4.4062,-19.866 7.2083,-26.114 4.0145,-18.993 1.3201,-38.346 3.0312,-57.496 5.7482,-23.87 21.217,9.9089 19.878,20.436 4.2588,22.734 2.74,46.126 7.1224,68.789 8.3926,6.8729 9.8216,-20.015 13.929,-26.575 7.8612,-16.26 3.8343,-36.228 13.883,-51.255 20.579,-3.6566 18.115,26.6 14.175,39.897 -2.2266,20.681 -7.3776,41.173 -7.4655,61.985 5.0885,12.855 2.7378,34.192 9.2388,42.03 13.523,-9.508 18.013,-24.852 24.468,-38.622 8.5501,-15.489 39.767,-14.793 23.329,6.6752 -8.0791,14.47 -8.3934,32.179 -19.613,45.165 -9.1568,21.808 -18.879,43.823 -34.661,61.839 -1.4897,9.0772 0.004,19.179 -0.36446,28.641 0.18774,22.029 -0.37146,44.229 5.5575,65.65 2.8895,14.483 4.8451,29.465 8.934,43.492 9.4213,21.847 13.54107,87.88846 15.04707,111.30346 -35.63,1.6991 -71.452,1.0202 -107.13,0.45612 -0.92827,-0.37857 -3.33,0.0674 -3.6948,-1.4737 z"
               id="path2991"
               inkscape:connector-curvature="0"
               style="fill:#d59879;fill-opacity:1;stroke:#413636;stroke-width:6.58866167;stroke-miterlimit:1.5;stroke-dasharray:none;stroke-opacity:1"
               sodipodi:nodetypes="cccccccccccccccccccccccccccccc" />
          </g>
          <rect
             style="clip-rule:evenodd;opacity:1;fill:none;fill-opacity:1;fill-rule:evenodd;stroke:#000000;stroke-width:9.24545574;stroke-linecap:round;stroke-linejoin:round;stroke-miterlimit:1.5;stroke-dasharray:none;stroke-opacity:1"
             id="rect28028"
             width="45.76384"
             height="57.211014"
             x="-583.24078"
             y="-158.23267"
             ry="13.51821"
             transform="translate(-3.4441354e-5,7.5121008e-7)" />
          <rect
             id="Tavola-da-disegno1"
             serif:id="Tavola da disegno1"
             x="311.85535"
             y="-58.68132"
             width="192.804"
             height="267.17401"
             style="clip-rule:evenodd;fill:none;fill-rule:evenodd;stroke-linecap:round;stroke-linejoin:round;stroke-miterlimit:1.5"
             transform="matrix(-1,0,0,1,-3.4441354e-5,7.5121008e-7)" />
          <rect
             x="485.53751"
             y="-121.77231"
             width="151.20683"
             height="90.918335"
             style="clip-rule:evenodd;fill:#dfdcdc;fill-opacity:1;fill-rule:evenodd;stroke-linecap:round;stroke-linejoin:round;stroke-miterlimit:1.5"
             id="rect3817"
             transform="matrix(-1,0,0,1,-3.4441354e-5,7.5121008e-7)" />
          <path
             d="m -488.49984,-22.620326 -144.47075,-0.26877 c -4.09726,-5.252638 5.73968,-19.559454 33.1233,-15.042056 23.63986,3.899744 57.26446,7.556563 73.96668,7.07717 16.70222,-0.480684 40.34311,-5.63641 40.34311,-5.63641 l -2.96234,13.870066 z"
             style="clip-rule:evenodd;fill:#f67871;fill-opacity:1;fill-rule:evenodd;stroke-linecap:round;stroke-linejoin:round;stroke-miterlimit:1.5"
             id="path3819"
             inkscape:connector-curvature="0"
             transform="translate(-3.4441354e-5,7.5121008e-7)" />
          <path
             d="m -485.5375,-30.853982 -151.20579,0 0,43.545855 c 0,0 36.4288,68.891609 36.4288,68.891609 l 78.34819,0 36.4288,-68.891609 c 0,0 0,-43.545855 0,-43.545855 z"
             style="clip-rule:evenodd;fill:#d25b54;fill-opacity:1;fill-rule:evenodd;stroke-linecap:round;stroke-linejoin:round;stroke-miterlimit:1.5"
             id="path3823"
             inkscape:connector-curvature="0"
             transform="translate(-3.4441354e-5,7.5121008e-7)" />
          <path
             d="m -487.30808,16.041156 c 1.15455,-2.183753 1.77058,-4.744818 1.77058,-7.3640302 l 0,-115.3745458 c 0,-9.97549 -6.46837,-18.06184 -14.4479,-18.06184 l -122.30999,0 c -7.97953,0 -14.4479,8.08635 -14.4479,18.06184 l 0,115.3745458 c 0,2.6192122 0.61603,5.1802772 1.77058,7.3640302 7.29837,13.801581 34.65822,65.542326 34.65822,65.542326 l 78.34819,0 c 0,0 27.35985,-51.740745 34.65822,-65.542326 z"
             style="clip-rule:evenodd;fill:none;fill-rule:evenodd;stroke:#000000;stroke-width:9.24545574;stroke-linecap:round;stroke-linejoin:round;stroke-miterlimit:1.5;stroke-dasharray:none;stroke-opacity:1"
             id="path3825"
             inkscape:connector-curvature="0"
             sodipodi:nodetypes="csssssscccc"
             transform="translate(-3.4441354e-5,7.5121008e-7)" />
          <path
             style="clip-rule:evenodd;fill:#d25b54;fill-opacity:1;fill-rule:evenodd;stroke:#000000;stroke-width:4.5999999;stroke-linecap:butt;stroke-linejoin:miter;stroke-miterlimit:1.5;stroke-dasharray:none;stroke-opacity:1"
             d="m -571.8229,109.53907 c -9.24882,47.59796 14.80884,90.99786 55.00647,88.2222 21.23406,-0.62874 46.88946,0.33481 68.11678,2.19477 31.49621,11.17636 28.94382,45.83697 4.8487,68.79209 -14.7222,15.11137 -38.185,10.92777 -57.65211,9.93862 -20.48035,-1.34923 -36.35361,-2.59654 -59.48202,-0.71725 -7.73122,0.29754 -11.76478,13.99807 -10.39096,22.07526 43.62645,-5.17407 103.56191,9.11403 134.9833,-6.88757 17.18837,-6.60644 20.86313,-24.99612 26.97632,-40.14914 7.82437,-16.33907 3.02471,-38.45417 -8.21552,-50.5628 -29.76206,-38.15966 -87.39478,-12.96689 -117.84887,-28.90754 -14.19448,-7.07752 -18.27275,-23.00895 -16.76271,-39.06271 -1.63456,-9.16426 11.04194,-19.01981 1.41184,-25.09653 -1.50439,-0.68736 -19.34253,0.23923 -20.99122,0.1606 z"
             id="path28015"
             inkscape:connector-curvature="0"
             sodipodi:nodetypes="cccccccccccccc"
             transform="translate(-3.4441354e-5,7.5121008e-7)" />
          <path
             d="m -611.2886,91.031244 c 0,-4.874 3.952,-8.825 8.826,-8.825 19.527,0 66.199,0 85.726,0 4.874,0 8.826,3.951 8.826,8.825 0,8.349 0,20.811996 0,29.160996 0,4.874 -3.952,8.826 -8.826,8.826 -19.527,0 -66.199,0 -85.726,0 -4.874,0 -8.826,-3.952 -8.826,-8.826 0,-8.349 0,-20.811996 0,-29.160996 z"
             style="clip-rule:evenodd;fill:#000000;fill-opacity:1;fill-rule:evenodd;stroke-linecap:round;stroke-linejoin:round;stroke-miterlimit:1.5"
             id="path3827"
             inkscape:connector-curvature="0"
             transform="translate(-3.4441354e-5,7.5121008e-7)" />
          <rect
             style="clip-rule:evenodd;opacity:1;fill:#e4bb7d;fill-opacity:1;fill-rule:evenodd;stroke:#413636;stroke-width:5;stroke-linecap:round;stroke-linejoin:round;stroke-miterlimit:1.5;stroke-dasharray:none;stroke-opacity:1"
             id="rect28099"
             width="52.387112"
             height="32.356747"
             x="-602.45184"
             y="271.08157"
             ry="10.4617"
             transform="translate(-3.4441354e-5,7.5121008e-7)" />
          <rect
             style="clip-rule:evenodd;opacity:1;fill:#c3b7b6;fill-opacity:1;fill-rule:evenodd;stroke:#000000;stroke-width:5.19999981;stroke-linecap:round;stroke-linejoin:round;stroke-miterlimit:1.5;stroke-dasharray:none;stroke-opacity:1"
             id="rect28023"
             width="30.907736"
             height="56.549774"
             x="-612.64764"
             y="258.36057"
             ry="10.461707"
             transform="translate(-3.4441354e-5,7.5121008e-7)" />
          <rect
             rx="0"
             ry="4.6875472"
             y="112.72525"
             x="-535.5932"
             height="27.199438"
             width="9.3750944"
             id="rect28032"
             style="clip-rule:evenodd;opacity:1;fill:#000000;fill-opacity:1;fill-rule:evenodd;stroke:none;stroke-width:10.55903244;stroke-linecap:round;stroke-linejoin:round;stroke-miterlimit:1.5;stroke-dasharray:none;stroke-opacity:1"
             transform="translate(-3.4441354e-5,7.5121008e-7)" />
          <rect
             style="clip-rule:evenodd;opacity:1;fill:#000000;fill-opacity:1;fill-rule:evenodd;stroke:none;stroke-width:10.55903244;stroke-linecap:round;stroke-linejoin:round;stroke-miterlimit:1.5;stroke-dasharray:none;stroke-opacity:1"
             id="rect28034"
             width="9.3750944"
             height="27.199438"
             x="-597.08435"
             y="112.72525"
             ry="4.6875472"
             rx="0"
             transform="translate(-3.4441354e-5,7.5121008e-7)" />
          <rect
             style="clip-rule:evenodd;opacity:1;fill:#f8f8f8;fill-opacity:1;fill-rule:evenodd;stroke:none;stroke-width:12;stroke-linecap:round;stroke-linejoin:round;stroke-miterlimit:1.5;stroke-dasharray:none;stroke-opacity:1"
             id="rect28038"
             width="74.656326"
             height="104.24419"
             x="-596.8371"
             y="-97.575676"
             ry="10.160986"
             transform="translate(-3.4441354e-5,7.5121008e-7)" />
          <path
             style="clip-rule:evenodd;fill:none;fill-rule:evenodd;stroke:#413636;stroke-width:5.77840948;stroke-linecap:round;stroke-linejoin:round;stroke-miterlimit:1.5;stroke-dasharray:none;stroke-opacity:1"
             d="m -589.61227,-78.382703 c 11.33655,-0.454021 17.25781,0 28.59818,0"
             id="path28040"
             inkscape:connector-curvature="0"
             sodipodi:nodetypes="cc"
             transform="translate(-3.4441354e-5,7.5121008e-7)" />
          <path
             style="clip-rule:evenodd;fill:none;fill-rule:evenodd;stroke:#413636;stroke-width:5.77840948;stroke-linecap:round;stroke-linejoin:round;stroke-miterlimit:1.5;stroke-dasharray:none;stroke-opacity:1"
             d="m -551.68204,-78.382703 15.65374,0.376332"
             id="path28042"
             inkscape:connector-curvature="0"
             transform="translate(-3.4441354e-5,7.5121008e-7)" />
          <path
             style="clip-rule:evenodd;fill:none;fill-rule:evenodd;stroke:#413636;stroke-width:5.77840948;stroke-linecap:round;stroke-linejoin:round;stroke-miterlimit:1.5;stroke-dasharray:none;stroke-opacity:1"
             d="m -589.61227,-65.211055 11.74031,0"
             id="path28044"
             inkscape:connector-curvature="0"
             sodipodi:nodetypes="cc"
             transform="translate(-3.4441354e-5,7.5121008e-7)" />
          <path
             style="clip-rule:evenodd;fill:none;fill-rule:evenodd;stroke:#413636;stroke-width:5.77840948;stroke-linecap:round;stroke-linejoin:round;stroke-miterlimit:1.5;stroke-dasharray:none;stroke-opacity:1"
             d="m -567.33578,-65.211055 31.30748,0.376333"
             id="path28046"
             inkscape:connector-curvature="0"
             sodipodi:nodetypes="cc"
             transform="translate(-3.4441354e-5,7.5121008e-7)" />
          <path
             style="clip-rule:evenodd;fill:none;fill-rule:evenodd;stroke:#413636;stroke-width:5.77840948;stroke-linecap:round;stroke-linejoin:round;stroke-miterlimit:1.5;stroke-dasharray:none;stroke-opacity:1"
             d="m -590.51537,-53.544737 26.18992,0.376332"
             id="path28048"
             inkscape:connector-curvature="0"
             sodipodi:nodetypes="cc"
             transform="translate(-3.4441354e-5,7.5121008e-7)" />
          <path
             style="clip-rule:evenodd;fill:none;fill-rule:evenodd;stroke:#413636;stroke-width:5.77840948;stroke-linecap:round;stroke-linejoin:round;stroke-miterlimit:1.5;stroke-dasharray:none;stroke-opacity:1"
             d="m -554.99341,-53.168405 17.15891,0.376333"
             id="path28050"
             inkscape:connector-curvature="0"
             transform="translate(-3.4441354e-5,7.5121008e-7)" />
          <path
             style="clip-rule:evenodd;fill:none;fill-rule:evenodd;stroke:#413636;stroke-width:5.77840948;stroke-linecap:round;stroke-linejoin:round;stroke-miterlimit:1.5;stroke-dasharray:none;stroke-opacity:1"
             d="m -589.31124,-41.125755 12.04134,0.376333"
             id="path28052"
             inkscape:connector-curvature="0"
             sodipodi:nodetypes="cc"
             transform="translate(-3.4441354e-5,7.5121008e-7)" />
          <path
             style="clip-rule:evenodd;fill:none;fill-rule:evenodd;stroke:#413636;stroke-width:5.77840948;stroke-linecap:round;stroke-linejoin:round;stroke-miterlimit:1.5;stroke-dasharray:none;stroke-opacity:1"
             d="m -569.142,-39.996756 29.5013,0.376333"
             id="path28054"
             inkscape:connector-curvature="0"
             sodipodi:nodetypes="cc"
             transform="translate(-3.4441354e-5,7.5121008e-7)" />
          <path
             style="clip-rule:evenodd;fill:none;fill-rule:evenodd;stroke:#413636;stroke-width:5.77840948;stroke-linecap:round;stroke-linejoin:round;stroke-miterlimit:1.5;stroke-dasharray:none;stroke-opacity:1"
             d="m -589.01021,-29.13311 22.87856,0.752666 -0.60207,0"
             id="path28056"
             inkscape:connector-curvature="0"
             transform="translate(-3.4441354e-5,7.5121008e-7)" />
          <path
             style="clip-rule:evenodd;fill:none;fill-rule:evenodd;stroke:#413636;stroke-width:5.77840948;stroke-linecap:round;stroke-linejoin:round;stroke-miterlimit:1.5;stroke-dasharray:none;stroke-opacity:1"
             d="m -558.00375,-28.004112 19.26615,0.376333"
             id="path28058"
             inkscape:connector-curvature="0"
             sodipodi:nodetypes="cc"
             transform="translate(-3.4441354e-5,7.5121008e-7)" />
          <rect
             ry="10.4617"
             y="203.2865"
             x="-782.7251"
             height="184.89569"
             width="112.47822"
             id="rect28128"
             style="opacity:1;fill:#8383e3;fill-opacity:1;fill-rule:evenodd;stroke:#413636;stroke-width:8;stroke-linecap:round;stroke-linejoin:round;stroke-miterlimit:1.5;stroke-dasharray:none;stroke-opacity:1" />
        </g>
      </g>
    </g>
  </g>
</svg>
