<?xml version="1.0" encoding="UTF-8" standalone="no"?>
<svg
   xmlns:dc="http://purl.org/dc/elements/1.1/"
   xmlns:cc="http://creativecommons.org/ns#"
   xmlns:rdf="http://www.w3.org/1999/02/22-rdf-syntax-ns#"
   xmlns:svg="http://www.w3.org/2000/svg"
   xmlns="http://www.w3.org/2000/svg"
   xmlns:sodipodi="http://sodipodi.sourceforge.net/DTD/sodipodi-0.dtd"
   xmlns:inkscape="http://www.inkscape.org/namespaces/inkscape"
   version="1.1"
   x="0"
   y="0"
   width="1081.5399"
   height="855.67334"
   viewBox="0 0 1081.5399 855.67334"
   id="svg10635"
   sodipodi:docname="publicdomainq-0005664xadfip_DDD.svg"
   inkscape:version="0.92.2 2405546, 2018-03-11">
  <metadata
     id="metadata10639">
    <rdf:RDF>
      <cc:Work
         rdf:about="">
        <dc:format>image/svg+xml</dc:format>
        <dc:type
           rdf:resource="http://purl.org/dc/dcmitype/StillImage" />
        <dc:title></dc:title>
      </cc:Work>
    </rdf:RDF>
  </metadata>
  <sodipodi:namedview
     pagecolor="#ffffff"
     bordercolor="#666666"
     borderopacity="1"
     objecttolerance="10"
     gridtolerance="10"
     guidetolerance="10"
     inkscape:pageopacity="0"
     inkscape:pageshadow="2"
     inkscape:window-width="1903"
     inkscape:window-height="1009"
     id="namedview10637"
     showgrid="false"
     inkscape:pagecheckerboard="true"
     inkscape:zoom="0.52902638"
     inkscape:cx="500.03987"
     inkscape:cy="326.82675"
     inkscape:window-x="0"
     inkscape:window-y="23"
     inkscape:window-maximized="0"
     inkscape:current-layer="layer10"
     fit-margin-top="0"
     fit-margin-left="0"
     fit-margin-right="0"
     fit-margin-bottom="0" />
  <defs
     id="defs10544">
    <linearGradient
       id="Gradient_1"
       gradientUnits="userSpaceOnUse"
       x1="23442.42"
       y1="20799.088"
       x2="25275.6"
       y2="20799.088"
       gradientTransform="scale(0.072)">
      <stop
         offset="0"
         stop-color="#FEFEFE"
         id="stop10438" />
      <stop
         offset="0.961"
         stop-color="#858789"
         id="stop10440" />
      <stop
         offset="1"
         stop-color="#858789"
         id="stop10442" />
    </linearGradient>
    <linearGradient
       id="Gradient_2"
       gradientUnits="userSpaceOnUse"
       x1="25977.928"
       y1="21041.221"
       x2="28044.029"
       y2="21041.221"
       gradientTransform="scale(0.072)">
      <stop
         offset="0"
         stop-color="#FEFEFE"
         id="stop10445" />
      <stop
         offset="0.961"
         stop-color="#858789"
         id="stop10447" />
      <stop
         offset="1"
         stop-color="#858789"
         id="stop10449" />
    </linearGradient>
    <linearGradient
       id="Gradient_3"
       gradientUnits="userSpaceOnUse"
       x1="25436.549"
       y1="19224.602"
       x2="25293.029"
       y2="19412.25"
       gradientTransform="scale(0.072)">
      <stop
         offset="0"
         stop-color="#D3363B"
         id="stop10452" />
      <stop
         offset="1"
         stop-color="#9A393C"
         id="stop10454" />
    </linearGradient>
    <linearGradient
       id="Gradient_4"
       gradientUnits="userSpaceOnUse"
       x1="25342.529"
       y1="21509.01"
       x2="25941.148"
       y2="21509.01"
       gradientTransform="scale(0.072)">
      <stop
         offset="0"
         stop-color="#FEFEFE"
         id="stop10457" />
      <stop
         offset="0.961"
         stop-color="#858789"
         id="stop10459" />
      <stop
         offset="1"
         stop-color="#858789"
         id="stop10461" />
    </linearGradient>
    <linearGradient
       id="Gradient_5"
       gradientUnits="userSpaceOnUse"
       x1="24540.09"
       y1="18724.709"
       x2="26465.67"
       y2="20312.01"
       gradientTransform="scale(0.072)">
      <stop
         offset="0"
         stop-color="#FEFEFE"
         id="stop10464" />
      <stop
         offset="1"
         stop-color="#373435"
         id="stop10466" />
    </linearGradient>
    <linearGradient
       id="Gradient_6"
       gradientUnits="userSpaceOnUse"
       x1="24999.99"
       y1="18290.881"
       x2="26051.941"
       y2="19158"
       gradientTransform="scale(0.072)">
      <stop
         offset="0"
         stop-color="#FEFEFE"
         id="stop10469" />
      <stop
         offset="1"
         stop-color="#373435"
         id="stop10471" />
    </linearGradient>
    <linearGradient
       id="Gradient_7"
       gradientUnits="userSpaceOnUse"
       x1="25437.211"
       y1="20376.541"
       x2="27096.658"
       y2="20376.541"
       gradientTransform="scale(0.072)">
      <stop
         offset="0"
         stop-color="#FEFEFE"
         id="stop10474" />
      <stop
         offset="0.961"
         stop-color="#858789"
         id="stop10476" />
      <stop
         offset="1"
         stop-color="#858789"
         id="stop10478" />
    </linearGradient>
    <linearGradient
       id="Gradient_8"
       gradientUnits="userSpaceOnUse"
       x1="26855.85"
       y1="19870.561"
       x2="28069.32"
       y2="19870.561"
       gradientTransform="scale(0.072)">
      <stop
         offset="0"
         stop-color="#FEFEFE"
         id="stop10481" />
      <stop
         offset="0.961"
         stop-color="#858789"
         id="stop10483" />
      <stop
         offset="1"
         stop-color="#858789"
         id="stop10485" />
    </linearGradient>
    <linearGradient
       id="Gradient_9"
       gradientUnits="userSpaceOnUse"
       x1="26399.941"
       y1="20318.07"
       x2="26646.361"
       y2="20318.07"
       gradientTransform="scale(0.072)">
      <stop
         offset="0"
         stop-color="#FEFEFE"
         id="stop10488" />
      <stop
         offset="0.961"
         stop-color="#858789"
         id="stop10490" />
      <stop
         offset="1"
         stop-color="#858789"
         id="stop10492" />
    </linearGradient>
    <linearGradient
       id="Gradient_10"
       gradientUnits="userSpaceOnUse"
       x1="27289.74"
       y1="19852.02"
       x2="27542.01"
       y2="19852.02"
       gradientTransform="scale(0.072)">
      <stop
         offset="0"
         stop-color="#FEFEFE"
         id="stop10495" />
      <stop
         offset="0.961"
         stop-color="#858789"
         id="stop10497" />
      <stop
         offset="1"
         stop-color="#858789"
         id="stop10499" />
    </linearGradient>
    <linearGradient
       id="Gradient_11"
       gradientUnits="userSpaceOnUse"
       x1="24384.66"
       y1="18948.15"
       x2="24565.08"
       y2="19096.861"
       gradientTransform="scale(0.072)">
      <stop
         offset="0"
         stop-color="#FEFEFE"
         id="stop10502" />
      <stop
         offset="1"
         stop-color="#373435"
         id="stop10504" />
    </linearGradient>
    <linearGradient
       id="Gradient_12"
       gradientUnits="userSpaceOnUse"
       x1="26506.168"
       y1="18754.35"
       x2="26649.27"
       y2="18872.311"
       gradientTransform="scale(0.072)">
      <stop
         offset="0"
         stop-color="#FEFEFE"
         id="stop10507" />
      <stop
         offset="1"
         stop-color="#373435"
         id="stop10509" />
    </linearGradient>
    <linearGradient
       id="Gradient_13"
       gradientUnits="userSpaceOnUse"
       x1="26848.139"
       y1="20086.111"
       x2="27058.529"
       y2="20086.111"
       gradientTransform="scale(0.072)">
      <stop
         offset="0"
         stop-color="#FEFEFE"
         id="stop10512" />
      <stop
         offset="0.961"
         stop-color="#858789"
         id="stop10514" />
      <stop
         offset="1"
         stop-color="#858789"
         id="stop10516" />
    </linearGradient>
    <linearGradient
       id="Gradient_14"
       gradientUnits="userSpaceOnUse"
       x1="26007"
       y1="20533.619"
       x2="26226.391"
       y2="20533.619"
       gradientTransform="scale(0.072)">
      <stop
         offset="0"
         stop-color="#FEFEFE"
         id="stop10519" />
      <stop
         offset="0.961"
         stop-color="#858789"
         id="stop10521" />
      <stop
         offset="1"
         stop-color="#858789"
         id="stop10523" />
    </linearGradient>
    <radialGradient
       id="Gradient_15"
       gradientUnits="userSpaceOnUse"
       cx="18746.34"
       cy="14556.18"
       r="300.177"
       gradientTransform="scale(0.072)">
      <stop
         offset="0"
         stop-color="#F9B6AD"
         id="stop10526" />
      <stop
         offset="0.42"
         stop-color="#FBCABE"
         id="stop10528" />
      <stop
         offset="0.988"
         stop-color="#FDDDCF"
         id="stop10530" />
      <stop
         offset="1"
         stop-color="#FDDDCF"
         id="stop10532" />
    </radialGradient>
    <radialGradient
       id="Gradient_16"
       gradientUnits="userSpaceOnUse"
       cx="20173.92"
       cy="13709.73"
       r="181.004"
       gradientTransform="scale(0.072)">
      <stop
         offset="0"
         stop-color="#F9B6AD"
         id="stop10535" />
      <stop
         offset="0.42"
         stop-color="#FBCABE"
         id="stop10537" />
      <stop
         offset="0.988"
         stop-color="#FDDDCF"
         id="stop10539" />
      <stop
         offset="1"
         stop-color="#FDDDCF"
         id="stop10541" />
    </radialGradient>
    <linearGradient
       id="Gradient_1-8"
       gradientUnits="userSpaceOnUse"
       x1="23442.42"
       y1="20799.088"
       x2="25275.6"
       y2="20799.088"
       gradientTransform="matrix(0.072,0,0,0.072,-0.07842376,-0.00110196)">
      <stop
         offset="0"
         stop-color="#FEFEFE"
         id="stop10438-0" />
      <stop
         offset="0.961"
         stop-color="#858789"
         id="stop10440-2" />
      <stop
         offset="1"
         stop-color="#858789"
         id="stop10442-4" />
    </linearGradient>
    <linearGradient
       id="Gradient_2-8"
       gradientUnits="userSpaceOnUse"
       x1="25977.928"
       y1="21041.221"
       x2="28044.029"
       y2="21041.221"
       gradientTransform="matrix(0.072,0,0,0.072,-0.07842376,-0.00110196)">
      <stop
         offset="0"
         stop-color="#FEFEFE"
         id="stop10445-3" />
      <stop
         offset="0.961"
         stop-color="#858789"
         id="stop10447-9" />
      <stop
         offset="1"
         stop-color="#858789"
         id="stop10449-0" />
    </linearGradient>
    <linearGradient
       id="Gradient_3-5"
       gradientUnits="userSpaceOnUse"
       x1="25436.549"
       y1="19224.602"
       x2="25293.029"
       y2="19412.25"
       gradientTransform="matrix(0.072,0,0,0.072,-0.07842376,-0.00110196)">
      <stop
         offset="0"
         stop-color="#D3363B"
         id="stop10452-2" />
      <stop
         offset="1"
         stop-color="#9A393C"
         id="stop10454-2" />
    </linearGradient>
    <linearGradient
       id="Gradient_4-7"
       gradientUnits="userSpaceOnUse"
       x1="25342.529"
       y1="21509.01"
       x2="25941.148"
       y2="21509.01"
       gradientTransform="matrix(0.072,0,0,0.072,-0.07842376,-0.00110196)">
      <stop
         offset="0"
         stop-color="#FEFEFE"
         id="stop10457-3" />
      <stop
         offset="0.961"
         stop-color="#858789"
         id="stop10459-7" />
      <stop
         offset="1"
         stop-color="#858789"
         id="stop10461-9" />
    </linearGradient>
    <linearGradient
       id="Gradient_5-0"
       gradientUnits="userSpaceOnUse"
       x1="24540.09"
       y1="18724.709"
       x2="26465.67"
       y2="20312.01"
       gradientTransform="matrix(0.072,0,0,0.072,-0.07842376,-0.00110196)">
      <stop
         offset="0"
         stop-color="#FEFEFE"
         id="stop10464-2" />
      <stop
         offset="1"
         stop-color="#373435"
         id="stop10466-3" />
    </linearGradient>
    <linearGradient
       id="Gradient_6-9"
       gradientUnits="userSpaceOnUse"
       x1="24999.99"
       y1="18290.881"
       x2="26051.941"
       y2="19158"
       gradientTransform="matrix(0.072,0,0,0.072,-0.07842376,-0.00110196)">
      <stop
         offset="0"
         stop-color="#FEFEFE"
         id="stop10469-9" />
      <stop
         offset="1"
         stop-color="#373435"
         id="stop10471-7" />
    </linearGradient>
    <linearGradient
       id="Gradient_7-0"
       gradientUnits="userSpaceOnUse"
       x1="25437.211"
       y1="20376.541"
       x2="27096.658"
       y2="20376.541"
       gradientTransform="matrix(0.072,0,0,0.072,-0.07842376,-0.00110196)">
      <stop
         offset="0"
         stop-color="#FEFEFE"
         id="stop10474-3" />
      <stop
         offset="0.961"
         stop-color="#858789"
         id="stop10476-9" />
      <stop
         offset="1"
         stop-color="#858789"
         id="stop10478-8" />
    </linearGradient>
    <linearGradient
       id="Gradient_8-6"
       gradientUnits="userSpaceOnUse"
       x1="26855.85"
       y1="19870.561"
       x2="28069.32"
       y2="19870.561"
       gradientTransform="matrix(0.072,0,0,0.072,-0.07842376,-0.00110196)">
      <stop
         offset="0"
         stop-color="#FEFEFE"
         id="stop10481-5" />
      <stop
         offset="0.961"
         stop-color="#858789"
         id="stop10483-7" />
      <stop
         offset="1"
         stop-color="#858789"
         id="stop10485-6" />
    </linearGradient>
    <linearGradient
       id="Gradient_9-2"
       gradientUnits="userSpaceOnUse"
       x1="26399.941"
       y1="20318.07"
       x2="26646.361"
       y2="20318.07"
       gradientTransform="matrix(0.072,0,0,0.072,-0.07842376,-0.00110196)">
      <stop
         offset="0"
         stop-color="#FEFEFE"
         id="stop10488-7" />
      <stop
         offset="0.961"
         stop-color="#858789"
         id="stop10490-0" />
      <stop
         offset="1"
         stop-color="#858789"
         id="stop10492-3" />
    </linearGradient>
    <linearGradient
       id="Gradient_10-9"
       gradientUnits="userSpaceOnUse"
       x1="27289.74"
       y1="19852.02"
       x2="27542.01"
       y2="19852.02"
       gradientTransform="matrix(0.072,0,0,0.072,-0.07842376,-0.00110196)">
      <stop
         offset="0"
         stop-color="#FEFEFE"
         id="stop10495-9" />
      <stop
         offset="0.961"
         stop-color="#858789"
         id="stop10497-9" />
      <stop
         offset="1"
         stop-color="#858789"
         id="stop10499-1" />
    </linearGradient>
    <linearGradient
       id="Gradient_11-7"
       gradientUnits="userSpaceOnUse"
       x1="24384.66"
       y1="18948.15"
       x2="24565.08"
       y2="19096.861"
       gradientTransform="matrix(0.072,0,0,0.072,-0.07842376,-0.00110196)">
      <stop
         offset="0"
         stop-color="#FEFEFE"
         id="stop10502-2" />
      <stop
         offset="1"
         stop-color="#373435"
         id="stop10504-3" />
    </linearGradient>
    <linearGradient
       id="Gradient_12-6"
       gradientUnits="userSpaceOnUse"
       x1="26506.168"
       y1="18754.35"
       x2="26649.27"
       y2="18872.311"
       gradientTransform="matrix(0.072,0,0,0.072,-0.07842376,-0.00110196)">
      <stop
         offset="0"
         stop-color="#FEFEFE"
         id="stop10507-5" />
      <stop
         offset="1"
         stop-color="#373435"
         id="stop10509-5" />
    </linearGradient>
    <linearGradient
       id="Gradient_13-8"
       gradientUnits="userSpaceOnUse"
       x1="26848.139"
       y1="20086.111"
       x2="27058.529"
       y2="20086.111"
       gradientTransform="matrix(0.072,0,0,0.072,-0.07842376,-0.00110196)">
      <stop
         offset="0"
         stop-color="#FEFEFE"
         id="stop10512-1" />
      <stop
         offset="0.961"
         stop-color="#858789"
         id="stop10514-4" />
      <stop
         offset="1"
         stop-color="#858789"
         id="stop10516-7" />
    </linearGradient>
    <linearGradient
       id="Gradient_14-1"
       gradientUnits="userSpaceOnUse"
       x1="26007"
       y1="20533.619"
       x2="26226.391"
       y2="20533.619"
       gradientTransform="matrix(0.072,0,0,0.072,-0.07842376,-0.00110196)">
      <stop
         offset="0"
         stop-color="#FEFEFE"
         id="stop10519-3" />
      <stop
         offset="0.961"
         stop-color="#858789"
         id="stop10521-8" />
      <stop
         offset="1"
         stop-color="#858789"
         id="stop10523-4" />
    </linearGradient>
    <radialGradient
       id="Gradient_15-8"
       gradientUnits="userSpaceOnUse"
       cx="18746.34"
       cy="14556.18"
       r="300.177"
       gradientTransform="matrix(0.072,0,0,0.072,-0.07842376,-0.00110196)">
      <stop
         offset="0"
         stop-color="#F9B6AD"
         id="stop10526-0" />
      <stop
         offset="0.42"
         stop-color="#FBCABE"
         id="stop10528-4" />
      <stop
         offset="0.988"
         stop-color="#FDDDCF"
         id="stop10530-6" />
      <stop
         offset="1"
         stop-color="#FDDDCF"
         id="stop10532-0" />
    </radialGradient>
    <radialGradient
       id="Gradient_16-3"
       gradientUnits="userSpaceOnUse"
       cx="20173.92"
       cy="13709.73"
       r="181.004"
       gradientTransform="matrix(0.072,0,0,0.072,-0.07842376,-0.00110196)">
      <stop
         offset="0"
         stop-color="#F9B6AD"
         id="stop10535-2" />
      <stop
         offset="0.42"
         stop-color="#FBCABE"
         id="stop10537-6" />
      <stop
         offset="0.988"
         stop-color="#FDDDCF"
         id="stop10539-9" />
      <stop
         offset="1"
         stop-color="#FDDDCF"
         id="stop10541-4" />
    </radialGradient>
  </defs>
  <g
     inkscape:groupmode="layer"
     id="layer10"
     inkscape:label="Layer 1"
     style="display:inline"
     transform="translate(0.07842376,0.00110352)">
    <path
       style="fill:#000000"
       d="m 240.52734,0 c -0.86352,0.02214844 -1.96054,0.376875 -3.31054,0.984375 -16.848,7.344 -33.69628,14.040047 -50.11328,22.248047 -14.04,7.127 -27.21646,15.550609 -41.68946,23.974609 -7.128,-7.992 -15.12033,-15.335609 -20.73633,-23.974609 -4.536,-6.696 -7.34398,-4.319641 -10.58398,-0.431641 -4.32,4.751 -7.99091,10.151938 -11.87891,15.335938 -12.096984,15.552 -25.274215,30.238297 -36.074215,46.654297 -13.176,20.087004 -24.190906,41.470074 -36.503906,62.205074 -1.296,2.16 -4.75175,3.67311 -7.34375,4.53711 -4.32,1.296 -5.833547,2.59219 -5.185547,7.99219 1.728,13.824 3.240594,27.8635 2.808594,41.6875 -0.648,15.983 -1.511422,15.98166 13.392578,21.59766 -3.888,6.48 -7.99286,12.74381 -11.88086,19.00781 -3.888,6.264 -2.808047,8.20906 4.751954,9.28906 2.591999,0.432 6.91139,1.08044 7.77539,3.02344 4.104,8.208 7.345578,17.06392 11.017578,25.91992 -9.721,-1.08 -17.065,3.88747 -24.625,8.85547 -29.159999,19.439 -25.704281,63.06981 1.511719,80.13281 15.984,9.936 30.674203,21.81675 46.658203,31.96875 22.464,14.255 44.712652,28.72547 68.472652,40.60547 23.545,11.879 49.03241,20.30388 73.44141,30.67188 2.16,0.864 4.75311,4.32049 4.53711,6.48046 -2.16,43.84601 3.45523,87.25963 5.61523,130.89063 1.296,24.408 1.5118,48.59886 2.5918,73.00586 0.432,7.128 1.5118,14.25676 2.5918,21.38477 1.512,11.01499 4.10475,21.81603 4.96875,32.83203 2.16,28.727 3.88839,57.45364 5.40039,86.18164 85.48059,38.48569 186.85346,-5.18077 261.64258,-3.87696 30.38482,0.63095 60.56306,4.68861 90.61914,8.96875 33.7233,5.82089 67.26111,12.56755 100.98437,18.36328 46.81039,7.92004 94.79076,12.63042 142.07227,6.01758 42.5498,-5.66906 84.84926,-19.14712 120.14648,-44.08398 29.02117,-20.8355 52.07364,-50.73468 62.07224,-85.25586 13.3677,-42.84734 11.6455,-89.32632 29.2149,-130.99024 25.9931,-39.44523 41.3453,-58.02229 38.1562,-99.08203 -3.6753,-32.72653 -21.577,-62.13815 -34.6621,-91.8125 -19.0838,-51.74704 -30.1965,-84.93607 -14.9941,-124.00976 9.2407,-23.75075 19.3153,-48.6458 23.8496,-73.88281 -17.6347,-4.76246 -39.8687,-10.37774 -55.96096,-14.30079 -15.552,-3.672 -30.67204,-10.15103 -46.87304,-8.20703 -10.152,1.296 -19.65464,1.51228 -29.80664,-1.51172 -14.904,-4.319 -30.24133,-6.69475 -45.36133,-9.71875 -5.832,-1.296 -10.36747,-3.23998 -8.85547,-10.58398 0.432,-2.808 0,-5.83263 0,-8.64063 0.216,-10.584 -3.24158,-19.656 -11.01758,-27 -8.424,-8.20797 -22.24859,-7.34232 -29.80859,1.51368 -7.992,-3.24 -15.98377,-8.20852 -23.75977,-1.72852 -7.128,5.832 -12.7454,13.39208 -19.4414,19.8711 -1.728,1.728 -4.75175,3.02343 -7.34375,3.02343 -7.344,0.216 -14.90282,-0.43204 -21.38282,4.75196 -2.376,1.944 -5.61698,4.32067 -8.20898,3.88867 -9.073,-1.296 -18.14516,-3.02403 -26.78516,-5.83203 -12.528,-3.888 -24.6245,-9.07163 -36.9375,-13.39063 -12.744,-4.536 -25.27147,-1.94572 -35.85547,5.61328 -18.577,13.392 -36.28972,28.08046 -50.76172,46.43946 -5.61599,7.128 -12.95853,13.17732 -20.51953,18.36132 -10.584,7.128 -21.81603,12.95786 -32.83203,19.00586 -1.944,1.08 -5.40011,2.16088 -6.91211,1.29688 -6.912,-3.888 -14.47304,-7.56078 -19.87304,-13.17578 -5.4,-5.616 -6.69635,-3.24028 -10.15235,1.51172 -9.504,12.527 -19.44095,24.62354 -29.37695,36.93554 -6.697,-5.832 -11.6633,-10.5835 -17.2793,-14.6875 -15.768,-11.88 -33.26567,-18.57681 -53.13867,-16.63281 -7.992,0.648 -15.55017,4.10331 -23.32617,6.69531 -14.04,4.536 -28.29789,9.07302 -42.33789,14.04102 -0.38492,0.1283 -0.73949,0.33841 -1.08203,0.58203 l -5.86524,1.09961 c -9.05471,-44.61253 -35.53798,-81.1784 -62.17383,-118.75 9.504,-5.184 19.00888,-10.15353 28.29688,-15.76953 2.808,-1.728 4.96731,-4.75139 6.69531,-7.77539 0.432,-0.431014 -3.23923,-3.887597 -5.61523,-5.183597 -6.264,-3.888 -12.96033,-7.127267 -20.73633,-11.447265 6.264,-13.608002 12.52781,-27.215063 19.00781,-41.039063 h -56.37695 l -0.64844,0.431641 c 0,-12.312 -0.4312,-25.054032 0.2168,-37.5820316 C 243.19733,1.5119844 242.4271,-0.04872657 240.52734,0 Z"
       id="path11385"
       inkscape:connector-curvature="0" />
  </g>
  <g
     inkscape:groupmode="layer"
     id="layer11"
     inkscape:label="Layer 2"
     style="display:inline"
     transform="translate(0.07842376,0.00110352)">
    <g
       transform="translate(0,-1.5647298e-6)"
       id="ƒŒƒCƒ_x201e__x0081__x005b__x0020_1">
      <path
         style="fill:#fff8af"
         d="m 402.19336,225.63477 c -8.58493,0.19063 -16.33612,4.49552 -24.60546,6.32406 -13.06836,3.85104 -24.41773,9.50335 -37.69073,12.50974 -1.78541,0.4044 -5.26162,0.21348 -4.73967,2.86877 1.82832,9.3011 2.5826,18.45441 2.73389,28.54738 12.58479,-0.89952 24.16422,-1.67567 36.65939,-3.33199 20.37178,1.95288 34.11688,9.26577 50.20411,15.78992 2.48194,0.33847 5.56325,3.50294 7.3717,0.63949 8.49325,-8.15599 16.25746,-17.29716 26.46716,-23.40206 3.08536,-2.1301 6.43115,-4.48701 10.38859,-3.84238 2.95127,-0.13435 6.87726,0.65992 9.13094,-1.43497 -0.022,-2.39708 -2.51646,-3.97691 -3.61602,-5.931 -6.01632,-5.62264 -12.14213,-11.39557 -19.25021,-15.56919 -9.45869,-4.46084 -18.9335,-9.40732 -29.35625,-11.04969 -7.80037,-1.9885 -15.69361,-2.19853 -23.69744,-2.11808 z"
         id="polygon13691"
         inkscape:connector-curvature="0"
         sodipodi:nodetypes="ccssccccccccccc" />
      <g
         id="g13861">
        <path
           style="fill:#bebfc1"
           inkscape:connector-curvature="0"
           d="m 222.96,475.957 c 21.384,7.343 41.905,14.903 62.857,21.383 18.144,5.616 36.721,9.936 54.865,15.336 2.16,0.648 5.184,3.24 5.184,5.184 1.944,25.055 3.456,50.11 4.752,75.166 1.08,18.575 1.512,37.367 2.16,55.942 0.864,19.872 1.728,39.743 2.592,59.615 0.864,19.223 2.592,38.231 2.808,57.454 0.216,22.679 -0.216,45.359 -0.432,68.038 -11.664,1.728 -23.328,2.808 -35.208,3.024 -26.569,0.216 -52.705,-4.536 -77.978,-12.311 -0.432,-8.208 -1.08,-16.416 -1.728,-24.624 -2.16,-29.591 -3.672,-59.398 -7.992,-88.773 -5.4,-37.368 -4.104,-74.735 -6.912,-112.102 -1.08,-15.119 -3.024,-30.239 -4.536,-45.574 -0.216,-1.296 -0.432,-2.592 -0.432,-3.888 -0.432,-19.656 -1.08,-39.311 -1.512,-59.183 0,-4.752 0.864,-9.719 1.296,-14.687 z"
           id="path13697" />
        <path
           style="fill:#dcdddf"
           inkscape:connector-curvature="0"
           d="m 670.736,493.884 c 7.344,13.608 14.689,27.215 22.465,41.903 -14.041,8.208 -27.433,16.416 -41.473,23.975 -14.904,8.208 -30.025,15.768 -45.361,23.328 -2.376,1.296 -6.048,1.944 -8.424,1.08 -20.52,-6.48 -41.041,-13.392 -61.345,-20.304 -23.329,-7.991 -46.873,-15.551 -69.986,-24.191 -19.224,-7.128 -38.016,-15.552 -57.241,-23.327 -12.528,-5.184 -25.056,-10.152 -37.584,-15.552 -3.672,-1.512 -6.912,-3.888 -10.8,-6.048 2.376,-3.24 3.888,-5.4 5.616,-7.56 -0.432,-0.648 -1.08,-1.296 -1.512,-1.944 -1.944,1.512 -4.752,2.808 -5.401,4.536 -1.08,3.24 -1.08,7.128 -0.648,10.584 0.216,1.512 2.809,2.808 4.753,3.672 22.032,9.504 43.848,19.223 66.097,27.863 20.952,8.208 42.121,14.904 63.289,22.464 27.648,9.935 55.081,20.303 82.73,30.239 6.696,2.376 14.04,3.456 22.248,5.4 -14.256,8.207 -26.785,15.767 -39.529,23.111 -10.368,5.832 -20.952,11.016 -31.32,16.848 -1.512,0.864 -3.024,4.751 -2.592,4.967 7.56,7.128 3.024,16.416 3.672,24.192 1.728,25.487 1.512,50.974 2.376,76.462 0.648,16.415 1.512,32.831 2.376,49.247 0.216,2.159 1.296,4.103 2.808,7.775 7.128,-9.071 1.944,-17.711 3.672,-26.135 5.184,0.432 9.504,0.432 9.072,8.208 -0.864,12.527 -0.648,25.271 -0.648,38.015 0,2.16 1.296,4.536 2.16,6.696 1.296,-2.16 3.456,-4.104 3.672,-6.264 0.432,-13.824 0.216,-27.431 0.216,-43.199 1.08,2.808 1.944,4.104 2.16,5.4 1.08,14.255 1.944,28.295 3.24,42.551 0,1.08 0.432,2.376 0.864,3.456 -37.368,-4.968 -74.737,-7.344 -112.322,-2.808 -27.216,3.24 -54.001,9.935 -81.001,14.255 -0.432,-32.183 -1.944,-64.366 -2.808,-96.549 -0.216,-8.424 -0.648,-17.064 -1.08,-25.488 -0.648,-13.391 -1.296,-26.999 -1.944,-40.39 -0.432,-9.288 -1.081,-18.36 -1.513,-27.648 -1.08,-26.135 -1.728,-52.27 -3.456,-78.406 -1.296,-21.383 -3.888,-42.767 -6.048,-64.15 -1.08,-10.584 2.592,-17.712 12.961,-21.815 12.96,-4.968 25.488,-11.232 38.448,-16.416 20.521,-8.424 40.825,-17.28 61.993,-23.975 7.777,-2.592 17.497,-1.296 25.705,0.432 13.824,3.024 27,7.775 41.473,12.095 -4.752,3.888 -7.776,7.56 -11.881,9.72 -8.424,4.752 -8.64,11.88 -7.344,20.088 0.216,1.727 0.864,3.455 1.08,5.399 0.864,8.424 4.32,13.392 13.393,16.2 15.12,4.752 30.024,10.8 44.496,17.712 23.113,11.231 44.929,11.447 66.314,-3.888 11.016,-7.776 22.896,-14.256 35.208,-21.816 z m -106.922,327.88 -2.16,-47.519 c 5.184,0.216 7.56,1.944 7.776,7.344 0.216,12.095 0.864,24.407 1.512,36.503 0,1.728 0.432,3.24 1.296,4.968 -2.808,-0.432 -5.616,-0.864 -8.424,-1.296 z m 9.936,1.512 c 4.753,-13.176 3.025,-26.784 1.945,-41.255 3.456,1.728 6.48,3.024 9.504,4.32 12.744,5.399 25.92,9.935 38.016,16.415 9.937,5.184 19.441,10.152 31.105,11.88 9.288,1.296 17.712,7.776 26.568,11.879 9.505,4.536 19.009,9.072 28.729,12.96 2.808,1.08 7.344,0.648 9.936,-0.864 39.745,-26.567 79.058,-53.782 118.802,-80.35 8.209,-5.616 17.281,-9.935 25.489,-15.335 1.944,-1.296 2.808,-4.752 3.024,-7.344 0.864,-10.584 1.296,-21.168 1.944,-31.751 1.08,-17.064 2.16,-34.127 3.24,-51.191 0,-0.432 -0.216,-1.08 0,-1.512 2.376,-4.104 6.048,-9.072 1.296,-12.96 -3.456,-2.808 -9.072,-3.024 -13.608,-4.535 -0.864,-0.216 -1.944,-0.648 -4.536,-1.512 11.664,-9.072 22.248,-17.064 34.128,-26.352 0,25.704 0,49.895 0,74.086 0,0 1.296,0.216 3.672,0.432 0,-25.703 0,-51.406 0,-77.326 2.16,-1.512 4.968,-3.24 8.641,-5.616 0,18.576 -0.216,36.072 0.216,53.351 0,2.592 1.728,4.968 4.104,6.912 -2.808,-20.952 4.104,-41.903 0.648,-62.638 -0.864,0 -1.728,-0.216 -2.592,-0.216 3.672,-2.592 7.56,-5.184 12.528,-8.64 0,18.359 0,35.639 0,53.998 5.184,-6.047 8.424,-49.246 4.752,-57.67 11.016,-7.344 22.464,-14.688 33.265,-22.464 12.096,-8.639 23.544,-18.143 35.856,-26.351 5.616,-3.672 12.744,-6.48 19.225,-7.344 19.44,-2.592 38.88,-4.104 57.673,4.752 1.728,0.864 3.24,1.512 4.968,2.376 -0.432,1.08 -0.864,2.376 -1.296,3.456 -6.264,14.688 -16.633,27.215 -24.409,41.039 -27.216,48.167 -19.872,109.077 -41.473,160.052 -39.096,92.877 -158.114,122.469 -258.34,113.181 -57.889,-5.4 -115.346,-19.44 -172.804,-28.295 z m 301.974,-104.11 v 0 c 0.864,-0.216 1.512,-0.216 2.376,-0.432 0.864,-14.471 1.944,-28.943 2.592,-43.415 0.648,-17.279 1.296,-34.559 1.512,-51.838 0,-1.728 -2.16,-3.24 -3.456,-4.968 -0.864,1.728 -2.16,3.456 -2.16,4.968 0,3.888 1.296,7.776 1.08,11.447 -1.296,25.704 -2.592,51.623 -3.888,77.326 0,2.376 1.296,4.536 1.944,6.912 z"
           id="path13695" />
        <path
           style="fill:#dcdddf"
           inkscape:connector-curvature="0"
           d="m 592.543,379.407 c 15.768,-6.048 31.536,-12.096 47.521,-18.143 7.992,-3.024 15.768,-6.912 23.976,-8.64 19.656,-3.888 37.369,-13.608 55.729,-20.952 10.368,-4.103 16.416,-1.728 25.057,1.728 20.736,8.64 41.688,16.416 62.641,24.408 20.304,7.776 40.609,15.767 60.913,23.759 7.56,2.808 14.04,0.864 20.088,-3.888 14.473,-11.879 30.457,-21.167 47.953,-28.079 28.081,-10.8 55.945,-12.528 84.242,-0.648 1.512,0.648 3.024,1.08 4.536,1.728 2.808,11.232 6.696,22.463 11.232,33.479 -8.208,-3.456 -16.416,-6.912 -24.84,-9.936 -17.929,-6.264 -36.073,-5.832 -52.705,3.24 -21.817,11.664 -42.985,24.84 -64.37,37.367 -22.464,13.176 -44.928,26.136 -67.177,39.743 -24.408,14.688 -48.385,29.807 -72.577,44.711 -0.864,0.432 -1.728,0.648 -1.944,0.648 1.944,-5.4 3.456,-11.232 5.832,-16.416 0.648,-1.728 3.456,-2.592 5.184,-3.887 8.208,-6.048 16.416,-12.096 24.624,-18.36 0.648,-0.432 1.296,-1.08 1.512,-1.728 0.216,-12.096 11.881,-22.679 3.673,-36.287 -2.809,-4.536 -0.864,-11.664 -0.864,-17.712 0,-1.295 1.08,-2.807 0.648,-3.671 -5.401,-8.208 -6.697,-19.224 -16.417,-24.624 -10.584,-5.832 -21.6,-5.616 -31.968,-0.216 -3.888,1.944 -7.344,6.48 -9.505,10.584 -3.888,7.776 -8.64,8.208 -16.416,4.752 -14.04,-6.048 -28.944,-10.8 -43.633,-14.904 -3.24,-0.864 -7.992,1.728 -11.664,3.24 -8.856,3.672 -17.928,7.56 -26.568,11.88 -5.616,2.808 -10.369,3.672 -16.633,0.432 -8.64,-4.536 -18.36,-7.56 -27.432,-11.448 0,-0.648 0,-1.512 -0.216,-2.16 z m 222.7,-3.672 v 0 c 3.888,7.56 7.56,14.472 11.232,22.032 4.968,-6.48 2.592,-11.664 -0.216,-17.064 -2.376,-4.104 -5.184,-7.128 -11.016,-4.968 z m -14.904,2.592 v 0 c 3.888,8.64 6.912,15.768 10.152,22.896 0.648,0 1.512,0.216 2.16,0.216 0.432,-3.672 1.728,-7.344 1.08,-10.8 -1.296,-5.832 -4.752,-10.584 -13.392,-12.312 z"
           id="path13699" />
        <path
           style="fill:#fdddcf"
           inkscape:connector-curvature="0"
           d="m 175.655,152.613 c -6.696,-11.232 -13.176,-22.247 -19.872,-33.479 0.432,-0.432 0.864,-0.648 1.296,-1.08 13.176,5.616 26.352,11.448 39.528,16.848 2.376,1.08 5.401,0.648 7.993,1.08 0,-2.808 0.216,-5.832 -0.432,-8.64 -2.376,-9.72 -5.185,-19.224 -8.209,-30.239 4.104,0.864 6.265,1.296 8.425,1.944 11.016,2.807 21.816,5.831 32.832,8.423 14.904,3.672 23.761,15.12 32.617,25.92 22.464,27.215 39.745,57.67 51.841,90.501 7.56,20.52 12.744,42.551 5.616,64.367 -6.696,20.519 -18.144,38.231 -36.937,49.894 -6.48,4.104 -12.528,9.072 -19.44,12.312 -30.889,15.12 -62.857,17.711 -95.906,7.128 -17.496,-5.4 -32.401,-13.392 -41.257,-30.671 9.288,-2.808 14.689,-9.072 15.121,-19.44 0,-1.728 1.728,-3.672 3.024,-4.968 3.888,-4.104 8.208,-7.992 11.88,-12.311 0.864,-0.864 0.216,-3.024 0.216,-4.536 -1.512,0 -3.888,-0.648 -4.752,0.216 -7.56,7.775 -17.497,13.391 -19.225,25.919 -0.864,7.344 -12.312,11.016 -21.384,7.776 -19.008,-6.696 -31.969,-19.008 -33.697,-40.175 -0.216,-3.456 1.944,-9.72 4.32,-10.368 6.049,-1.728 14.257,-3.456 19.009,-0.648 9.288,5.184 17.28,12.96 25.056,20.52 3.888,3.887 5.832,4.967 9.288,-0.216 2.592,-3.888 6.049,-7.128 9.505,-10.152 3.456,-3.024 3.456,-5.616 0.432,-9.072 -9.073,-11.448 -19.873,-22.031 -25.921,-34.775 -6.696,-13.824 -9.936,-29.807 -12.528,-45.143 -1.944,-12.312 -0.432,-25.271 -0.432,-39.095 21.168,1.512 40.393,2.808 59.617,3.888 0.648,-0.648 1.296,-1.296 2.16,-1.944 z m 108.866,128.301 v 0 c -7.344,-2.376 -7.344,3.024 -8.856,6.48 -3.24,7.559 -9.936,11.663 -17.28,9.719 -5.617,-1.296 -11.881,-2.808 -9.289,-13.175 -3.456,1.944 -6.912,3.024 -6.912,4.32 -0.216,3.023 0.432,6.911 2.16,8.855 6.48,6.912 14.473,9.72 23.977,6.696 10.8,-3.672 14.04,-12.744 16.2,-22.895 z m -99.794,-56.159 v 0 c 3.888,6.912 -0.216,15.984 8.856,17.496 6.264,1.08 9.937,-3.24 9.073,-10.152 -0.648,-5.184 -0.648,-12.312 -8.425,-12.312 -3.024,0 -6.264,3.24 -9.504,5.184 z m -37.801,-39.959 v 0 c 0.216,1.08 0.432,3.672 1.513,6.048 0.648,1.296 2.592,1.944 3.888,3.024 0.648,-1.512 1.944,-3.024 1.944,-4.536 0,-1.944 -1.08,-3.888 -1.296,-6.048 -0.216,-9.719 4.752,-12.959 13.176,-9.287 1.944,0.864 4.32,0.216 6.696,0.216 -1.296,-2.376 -2.16,-5.832 -4.32,-6.696 -11.664,-5.4 -22.033,2.592 -21.817,17.495 z M 111.07,307.265 v 0 c 3.888,4.536 7.56,4.32 10.584,0.432 1.944,-2.592 3.888,-5.4 4.752,-8.424 0.648,-2.376 0.648,-7.344 -0.216,-7.559 -5.616,-1.728 -11.448,-3.024 -17.28,-3.456 -1.728,-0.216 -3.672,2.807 -5.616,4.103 1.728,1.08 3.456,2.592 5.4,3.024 3.024,0.648 6.264,0.432 10.152,0.864 -3.24,4.536 -5.4,7.776 -7.776,11.016 z M 284.089,190.844 v 0 c -0.648,-4.752 1.728,-11.664 -6.264,-11.88 -4.968,0 -8.856,3.456 -8.208,9.072 0.648,5.616 1.512,12.096 8.856,12.528 7.776,0.648 4.968,-6.048 5.832,-9.936 z m -39.313,-61.342 v 0 c 4.104,2.592 7.128,4.536 10.152,6.048 1.297,0.648 3.673,0.648 4.537,-0.216 0.864,-0.864 1.08,-3.456 0.432,-4.536 -2.808,-5.184 -14.041,-7.992 -18.577,-4.752 -5.4,3.888 -8.424,16.847 -4.752,21.167 0.432,0.432 1.512,0.432 2.808,0.648 1.512,-5.616 3.24,-11.231 5.184,-18.143 z m 32.617,109.509 v 0 c -0.432,2.16 -1.512,4.536 -1.08,6.696 0.216,1.944 1.944,3.456 3.024,5.4 1.08,-1.296 3.024,-2.376 3.456,-3.888 1.08,-3.672 1.728,-7.56 1.944,-11.232 0,-1.08 -1.08,-3.456 -1.728,-3.456 -7.344,-0.216 -14.904,-0.216 -22.896,-0.216 3.888,5.616 3.888,5.616 17.496,7.128 z m -109.082,55.942 v 0 c -0.864,0 -1.728,-0.216 -2.592,-0.216 -3.672,2.808 -7.344,5.616 -10.8,8.424 -0.864,0.648 -1.728,2.16 -1.512,3.024 0.216,1.08 2.16,2.592 2.592,2.376 3.672,-1.512 7.56,-3.024 10.368,-5.616 1.728,-1.512 1.296,-5.184 1.944,-7.992 z"
           id="path13701" />
        <path
           style="fill:#97999b"
           inkscape:connector-curvature="0"
           d="m 1077.256,501.66 c -4.32,-1.512 -8.64,-2.808 -12.96,-4.104 -31.537,-8.424 -62.642,-6.048 -90.074,14.256 -21.169,15.767 -41.473,32.615 -62.641,48.382 -10.152,7.56 -21.601,13.824 -32.185,20.952 -12.96,8.64 -25.704,17.279 -38.449,25.919 -5.832,-11.879 -4.536,-16.415 5.616,-22.895 8.641,-5.4 17.065,-10.8 25.489,-15.984 0.648,-0.432 1.728,-0.864 1.728,-1.512 0,-13.607 13.392,-13.823 20.736,-19.223 11.881,-8.64 25.705,-14.256 38.449,-21.384 6.912,-3.888 13.824,-8.207 20.304,-12.527 1.08,-0.648 1.512,-2.808 1.728,-4.32 0.649,-3.456 1.081,-6.696 1.729,-10.152 0,-0.432 0.432,-1.296 0.216,-1.512 -5.833,-7.128 0.864,-13.392 1.728,-19.871 1.08,-7.992 -4.969,-10.368 -10.153,-13.608 4.104,-12.096 0.432,-17.712 -12.744,-22.679 -14.04,-5.184 -27.864,-11.448 -43.633,-17.928 14.905,-9.072 28.081,-17.28 41.473,-25.271 5.832,-3.456 11.88,-6.264 17.712,-9.504 22.033,-13.176 44.497,-14.256 68.258,-4.32 6.696,2.808 13.608,5.616 20.304,8.424 15.984,36.935 36.505,73.222 37.369,108.861 z"
           id="path13703" />
        <path
           style="fill:#aa6969"
           inkscape:connector-curvature="0"
           d="m 438.316,442.046 c -9.072,3.455 -16.632,7.775 -24.625,9.071 -9.72,1.512 -19.872,0.432 -29.592,0 -23.113,-1.08 -42.985,-12.527 -64.153,-20.303 -10.368,-3.888 -20.521,-8.208 -30.457,-12.96 -9.288,-4.536 -18.576,-9.288 -26.784,-15.335 -15.769,-11.664 -34.561,-10.368 -52.273,-13.176 -10.369,-1.728 -19.225,2.376 -27.217,8.64 -9.504,7.343 -12.744,19.871 -7.776,30.671 0.432,1.08 1.296,1.944 3.456,4.968 0.864,-4.104 1.728,-6.264 1.512,-8.208 -1.944,-18.144 11.232,-31.319 29.161,-29.375 11.88,1.296 23.76,2.16 35.424,4.32 6.048,1.296 12.529,4.103 17.497,7.991 18.36,14.472 39.744,22.464 61.129,30.888 14.256,5.615 28.728,11.663 43.201,16.631 5.616,1.944 11.88,1.512 17.928,2.16 2.376,0.216 4.968,1.08 7.344,1.512 -10.584,4.968 -20.736,9.72 -31.105,14.472 -14.04,6.479 -17.064,11.015 -16.416,26.999 0,1.944 0,4.104 0,8.64 C 302.449,494.748 261.625,480.708 220.8,465.805 197.471,457.381 174.575,448.093 151.679,438.59 120.142,425.63 91.413,408.134 64.197,387.615 49.509,376.599 34.388,366.016 19.484,355.432 2.204,342.904 4.58,308.129 23.156,295.601 c 3.888,-2.592 7.776,-5.184 11.88,-7.343 9.073,-4.752 14.689,-2.376 20.953,4.967 12.744,14.688 24.84,31.536 40.609,42.335 17.064,11.664 36.504,21.168 58.105,24.408 7.776,1.08 15.552,3.888 22.896,6.48 19.008,6.479 38.449,6.479 58.105,3.455 1.728,-0.216 4.104,-0.432 4.968,0.432 14.689,15.552 33.265,24.624 52.057,34.127 24.409,12.528 50.329,15.336 77.33,15.336 2.808,0 7.128,3.888 8.424,6.912 3.24,7.344 8.208,9.504 15.768,9.936 5.184,0.216 10.368,3.24 15.552,3.888 6.696,0.864 13.609,0.648 20.521,0.864 2.376,0.216 4.752,0.648 8.208,1.08 z M 196.391,380.055 v 0 c -5.832,-1.296 -11.664,-2.16 -16.848,-4.104 -4.968,-1.944 -9.504,-5.4 -14.256,-8.208 -0.432,0.648 -0.648,1.296 -1.08,1.944 7.344,11.016 27.216,17.928 32.184,10.584 z"
           id="path13705" />
        <path
           style="fill:#7a563b"
           inkscape:connector-curvature="0"
           d="m 29.636,241.603 c 4.752,-6.048 9.072,-12.096 13.825,-17.928 3.024,-3.888 2.808,-6.048 -2.16,-7.776 -13.177,-4.751 -12.961,-4.967 -12.961,-19.007 0,-11.88 0,-23.759 0,-35.639 1.728,-2.16 4.536,-4.32 6.048,-7.128 12.529,-21.383 23.761,-43.631 37.585,-64.15 14.688,-21.6 31.753,-41.471 46.657,-60.263 8.64,7.56 17.28,15.12 25.92,22.896 3.889,3.456 7.561,8.208 9.289,-1.296 0.216,-0.864 1.296,-1.512 2.16,-1.944 24.408,-14.904 48.385,-30.671 76.033,-39.527 1.08,-0.432 2.376,-0.216 4.752,-0.648 -0.864,11.88 -1.296,23.327 -2.376,34.775 -0.432,5.4 0.648,7.992 6.48,7.344 12.312,-1.08 24.841,-2.16 37.153,-3.24 3.24,-0.216 6.696,0 11.448,0 -5.616,13.176 -11.016,25.703 -16.848,39.311 7.776,4.104 15.768,8.424 24.192,12.96 -8.424,5.399 -15.984,10.583 -23.76,15.335 -1.08,0.648 -3.672,0.648 -4.752,0 -18.793,-14.04 -41.473,-17.711 -63.073,-23.975 -5.185,-1.512 -10.369,-5.616 -16.417,-0.432 2.592,11.663 5.184,23.759 8.208,37.151 -10.368,-4.536 -19.872,-8.856 -29.16,-13.176 -4.32,-1.944 -8.208,-4.32 -12.528,-6.048 -1.944,-0.648 -4.32,0 -6.48,0.216 0.216,2.16 -0.216,4.536 0.648,6.264 4.968,10.8 10.152,21.168 15.552,33.047 -20.305,-1.728 -39.961,-3.456 -58.105,-4.968 0,9.288 -0.432,16.848 0,24.192 1.08,15.119 2.592,30.239 4.536,45.359 1.08,7.343 2.808,14.903 5.832,21.599 2.808,6.48 7.776,11.88 11.88,17.712 3.456,4.751 6.696,10.151 10.8,14.255 6.264,6.264 6.264,11.232 -1.728,16.632 -7.344,-5.616 -15.12,-11.448 -22.68,-17.496 -8.208,-6.48 -22.249,-7.776 -30.457,-2.592 -7.128,4.536 -9.504,14.256 -6.696,25.92 4.752,19.655 18.145,32.183 36.289,36.719 13.392,3.456 16.848,14.903 25.272,22.679 -1.512,-0.432 -3.024,-0.648 -4.536,-1.296 C 93.357,330.16 63.333,300.137 45.405,258.234 40.653,247.003 41.085,246.787 29.636,241.819 Z"
           id="path13707" />
        <path
           style="fill:#e3dedc"
           inkscape:connector-curvature="0"
           d="m 1026.063,285.018 c -17.496,-7.56 -36.073,-9.936 -54.649,-11.016 -21.601,-1.08 -41.473,6.696 -60.481,15.984 -9.504,4.535 -18.577,9.935 -27.865,14.903 -5.832,3.24 -11.232,2.808 -17.496,0.216 -11.664,-4.752 -23.545,-8.64 -35.641,-12.096 -23.328,-6.911 -46.873,-13.391 -70.417,-19.871 -5.616,-1.512 -11.664,-1.944 -17.496,-2.808 0,-0.864 -0.216,-1.512 -0.216,-2.376 21.168,-9.072 42.336,-17.927 63.721,-26.999 16.416,-6.912 32.832,-13.608 49.033,-20.736 18.792,-8.423 36.72,-18.359 55.945,-25.919 19.44,-7.344 39.96,-11.232 60.697,-7.56 13.176,2.376 26.136,6.264 39.313,9.504 13.824,3.456 27.648,6.912 41.472,10.152 -5.184,26.783 -18.144,52.054 -25.488,78.406 z"
           id="path13709" />
        <path
           style="fill:#b3cae9"
           inkscape:connector-curvature="0"
           d="m 645.464,356.512 c 6.696,-33.047 -13.177,-55.511 -27.865,-79.918 -15.768,-25.703 -41.041,-38.015 -69.553,-45.143 0.216,-0.864 0.216,-1.728 0.432,-2.592 7.992,-4.536 15.768,-9.72 23.976,-13.608 11.017,-5.183 19.657,-12.311 27.865,-21.383 14.04,-15.336 29.592,-29.807 45.361,-43.415 11.88,-10.152 25.92,-12.959 41.256,-6.264 6.913,3.024 14.041,4.752 21.601,7.128 -7.128,4.752 -14.472,9.072 -20.953,14.472 -22.68,18.575 -44.928,37.367 -67.393,56.158 -4.32,3.672 -8.208,5.4 -14.688,5.832 -7.344,0.432 -14.472,6.912 -22.248,11.232 4.752,6.264 7.992,6.048 11.232,1.944 3.456,-4.32 7.128,-7.344 13.392,-5.616 -3.672,4.752 -6.912,9.072 -10.152,13.608 -0.432,0.432 1.512,2.592 2.376,4.103 12.312,-12.743 22.68,-25.271 34.777,-35.855 20.736,-17.927 41.904,-35.423 64.153,-51.622 14.688,-10.8 31.32,-12.096 48.169,-2.808 25.056,14.039 52.489,20.735 80.785,24.191 2.16,0.216 5.184,3.456 5.616,5.616 1.296,5.616 1.728,11.232 1.512,17.064 -0.216,7.991 -4.536,12.095 -11.88,16.631 -17.928,11.448 -35.857,8.424 -54.217,3.888 -4.536,-1.08 -8.64,-4.32 -13.176,-5.4 -2.16,-0.648 -5.832,0.216 -7.344,1.944 -11.233,12.096 -21.817,24.84 -33.049,37.151 -2.16,2.376 -5.4,3.672 -7.992,5.832 -1.512,1.512 -3.456,3.456 -3.672,5.4 -0.864,22.247 -10.8,40.607 -22.249,58.75 -8.424,13.392 -22.896,15.984 -36.504,23.112 z"
           id="path13711" />
        <path
           style="fill:#d3d4d5"
           inkscape:connector-curvature="0"
           d="m 713.073,532.115 c 16.848,-10.584 34.129,-21.383 51.409,-32.183 23.976,-14.688 48.169,-29.375 72.361,-43.847 15.121,-9.072 30.241,-18.143 45.361,-26.783 7.56,-4.32 14.472,0.864 21.169,3.456 10.8,4.104 20.952,9.504 31.536,13.823 8.856,3.672 10.368,6.912 7.776,15.552 -0.648,1.944 2.16,6.912 4.32,7.56 6.48,2.376 7.992,5.184 4.536,11.448 -2.376,4.535 -6.696,9.287 -1.296,14.687 0.432,0.432 -0.432,1.728 -0.648,2.592 -0.648,3.672 -1.296,7.128 -2.376,13.176 -9.072,7.56 -21.816,13.823 -34.344,20.735 -0.432,-0.648 -0.864,-1.296 -1.296,-1.944 0.432,-0.648 1.512,-1.728 1.512,-2.16 -6.048,-10.367 2.16,-23.543 -6.912,-33.263 -1.08,-1.296 -1.08,-4.752 -0.432,-6.696 1.296,-3.456 3.672,-6.263 5.184,-9.503 2.592,-6.264 -0.216,-9.936 -6.696,-11.664 -12.961,-3.24 -25.705,-6.912 -38.449,-10.8 -5.184,-1.512 -9.72,-4.752 -14.688,-7.128 -0.648,0.648 -1.296,1.296 -1.944,1.944 1.08,1.728 1.728,4.32 3.24,4.968 12.96,4.32 25.92,8.208 38.88,12.528 4.968,1.728 9.937,4.104 15.769,6.48 -2.16,3.888 -3.888,7.992 -6.264,11.879 -3.241,4.968 -2.377,8.856 1.296,13.176 1.944,2.376 4.32,7.128 3.24,8.64 -5.616,9.072 0.864,15.767 3.24,24.407 -9.505,6.264 -19.441,12.528 -29.593,18.792 -1.08,0.648 -4.104,0.216 -4.536,-0.648 -0.864,-1.512 -1.296,-4.104 -0.432,-5.616 2.808,-6.48 6.696,-12.744 -3.024,-17.28 -0.864,-0.432 -1.08,-3.672 -0.864,-5.616 0.432,-2.807 2.16,-5.183 2.592,-7.991 1.728,-8.64 -0.648,-9.936 -9.072,-12.312 -17.497,-5.184 -34.345,-11.88 -51.625,-17.712 -1.728,-0.648 -3.888,-0.432 -5.832,-0.432 1.08,1.728 1.944,4.536 3.672,4.968 17.064,6.264 34.344,12.528 51.625,17.928 5.4,1.728 6.48,4.104 5.184,8.856 -0.864,3.024 -2.376,6.047 -2.16,8.855 0,2.808 0.864,7.344 2.808,8.424 4.536,2.376 3.888,4.536 2.376,8.64 -1.296,3.672 -0.216,8.208 -1.08,12.096 -0.648,3.672 -0.864,8.855 -3.456,10.799 -7.344,5.832 -15.768,10.584 -23.761,15.768 -3.456,2.16 -6.912,4.104 -10.8,6.48 -16.632,-3.672 -34.344,-6.912 -51.625,-11.232 -26.352,-6.696 -51.409,-15.984 -66.097,-43.847 z"
           id="path13713" />
        <path
           style="fill:url(#Gradient_1-8)"
           inkscape:connector-curvature="0"
           d="m 533.574,642.272 c 44.712,17.496 88.345,34.343 131.978,51.407 -0.864,38.879 -1.728,77.542 -2.592,115.557 -5.4,-0.648 -10.8,-1.08 -16.2,-2.376 -4.104,-0.864 -8.208,-2.808 -12.096,-4.536 -8.425,-3.672 -16.849,-7.56 -25.273,-11.232 -5.616,-2.592 -11.448,-4.968 -16.848,-7.559 -16.201,-7.56 -32.617,-15.12 -48.817,-23.112 -2.592,-1.296 -5.616,-4.968 -5.832,-7.776 -1.512,-16.631 -2.592,-33.479 -3.24,-50.326 -0.648,-17.28 -0.864,-34.559 -1.296,-51.839 0,-2.16 0,-4.536 0,-8.208 z"
           id="path13715" />
        <path
           style="fill:#fdddcf"
           inkscape:connector-curvature="0"
           d="m 551.502,388.263 c -3.672,-1.728 -7.128,-4.104 -11.016,-5.4 -3.024,-1.08 -7.344,-2.376 -9.504,-0.864 -10.801,7.128 -21.817,4.104 -32.617,1.512 -6.264,-1.512 -11.664,-2.16 -14.04,5.4 -1.296,4.32 -1.512,6.912 4.752,7.344 7.56,0.648 14.904,3.24 22.68,5.184 -1.944,3.888 -8.208,7.991 -1.512,12.311 4.752,3.024 10.584,6.912 15.337,6.048 4.104,-0.648 7.128,-7.344 11.016,-11.664 23.112,7.992 46.441,16.2 68.041,23.76 1.728,3.672 2.16,7.776 4.32,9.072 4.968,3.024 10.368,8.207 16.632,1.944 4.104,-4.104 8.209,-3.672 12.097,-0.216 6.048,5.399 11.88,11.015 19.224,17.711 -18.576,0 -34.777,0.216 -50.977,0 -39.529,-0.432 -74.953,-17.279 -112.322,-27.431 -10.584,-2.808 -21.816,-2.808 -32.833,-4.536 -6.48,-1.08 -13.176,-2.808 -19.44,-4.968 -11.88,-4.104 -16.2,-14.472 -12.096,-29.375 1.08,-4.104 2.808,-8.424 4.752,-12.312 11.664,-22.031 21.384,-22.679 44.497,-15.767 14.256,4.103 29.16,6.695 43.848,9.071 17.497,2.592 35.641,2.592 52.705,6.912 14.689,3.456 28.297,11.016 42.121,17.28 17.497,7.775 35.425,14.903 54.865,14.903 15.553,0 31.537,-1.296 45.793,-9.071 2.16,-1.296 4.752,-1.944 7.344,-2.592 0.648,-0.216 1.512,0.216 2.592,0.216 -3.456,8.639 -6.696,17.063 -9.936,25.703 -15.336,-13.608 -22.464,-16.2 -27.864,-8.856 14.472,1.728 20.304,14.256 30.024,21.816 4.104,3.24 11.016,3.671 16.632,4.103 6.265,0.432 12.529,-1.079 18.793,-1.295 3.024,0 7.128,0.216 8.424,1.943 1.512,2.16 1.512,6.696 0.216,9.072 -3.888,7.56 -15.336,11.664 -23.976,9.936 -13.393,-3.024 -26.785,-6.048 -39.097,4.536 -1.296,1.08 -4.752,-0.216 -7.128,-0.648 -8.641,-1.512 -15.553,-4.536 -19.225,-13.824 -3.672,-9.072 -11.232,-15.119 -20.304,-19.223 -3.888,-1.728 -7.128,-4.968 -10.584,-7.56 9.72,-9.936 9.72,-10.368 -3.672,-13.824 -4.104,-1.08 -9.072,0.648 -13.825,1.512 -2.376,0.432 -4.968,2.16 -7.128,1.512 -21.168,-6.48 -42.121,-13.175 -63.073,-20.303 -2.592,-0.864 -4.104,-4.536 -6.264,-7.128 0.432,-0.432 1.08,-0.864 1.512,-1.512 z"
           id="path13717" />
        <path
           style="fill:#fff8af"
           inkscape:connector-curvature="0"
           d="m 511.541,218.059 c 14.041,13.176 31.537,19.44 49.465,25.056 24.193,7.56 41.905,22.895 54.649,44.279 9.288,15.767 21.385,30.239 22.465,49.462 0.432,6.48 0.432,12.96 -0.648,19.224 -0.216,1.944 -4.32,3.672 -7.128,4.752 -13.177,5.616 -26.353,11.015 -39.745,16.415 -1.944,0.864 -4.752,1.512 -6.48,0.648 -17.065,-6.912 -35.425,-6.696 -53.137,-8.856 -12.961,-1.512 -26.137,-2.807 -38.881,-5.183 -7.992,-1.512 -16.632,-3.24 -17.064,-15.336 12.312,-7.344 10.152,-18.36 4.968,-30.671 1.728,2.376 3.456,4.536 4.968,7.128 4.32,7.343 8.208,14.903 12.744,22.031 7.128,11.232 10.152,12.096 20.952,4.536 6.049,-4.104 12.745,-7.992 16.849,-13.608 3.672,-4.968 5.832,-12.527 5.4,-18.575 -1.08,-11.88 -4.752,-23.328 -14.472,-31.535 -1.08,-0.864 -1.944,-1.728 -2.592,-2.808 -7.777,-14.256 -21.817,-19.44 -36.073,-24.624 -5.832,-1.944 -6.48,-4.968 -2.376,-9.935 8.64,-10.584 17.28,-21.384 26.352,-32.616 z"
           id="path13719" />
        <path
           style="fill:url(#Gradient_2-8)"
           inkscape:connector-curvature="0"
           d="m 716.097,833.427 c 0.864,-26.999 2.592,-53.35 2.376,-79.702 -0.216,-14.471 2.376,-23.975 16.416,-32.399 22.681,-13.607 46.873,-23.759 69.986,-36.287 19.44,-10.584 38.664,-21.599 58.105,-32.183 0.432,-0.216 1.08,0 1.944,0 -0.432,7.992 -0.864,15.768 -1.296,23.759 -1.08,15.768 -2.376,31.536 -3.024,47.303 -0.216,7.56 -2.808,12.744 -9.504,17.064 -41.041,27.215 -81.866,55.078 -122.691,82.726 -4.32,3.023 -8.424,6.695 -12.096,9.719 z"
           id="path13721" />
        <path
           style="fill:#fff8af"
           inkscape:connector-curvature="0"
           d="m 414.987,342.256 c -22.68,19.872 -37.152,43.199 -37.152,74.518 -11.232,-6.048 -21.817,-4.752 -32.401,-5.4 -12.96,-0.648 -26.136,-3.888 -38.233,-8.207 -20.952,-7.56 -39.96,-19.008 -57.673,-32.832 -0.648,-0.432 -0.864,-1.08 -1.728,-2.16 43.849,-14.903 77.33,-40.39 89.426,-88.341 16.416,-1.08 20.97828,-2.51442 37.61028,-3.16242 2.16,0 16.82272,2.51442 18.98272,3.81042 2.16,1.296 4.104,3.24 6.264,4.32 7.56,3.024 15.336,5.832 23.113,8.855 5.4,2.16 12.744,15.984 11.448,21.6 -1.08,4.32 -2.376,8.64 -3.456,12.528 -4.752,-5.832 -9.288,-12.528 -14.904,-18.144 -4.537,-4.536 -11.233,-3.24 -16.201,2.376 -4.104,4.968 0.432,7.992 3.456,11.016 1.944,1.944 4.104,3.672 7.344,6.479 -23.328,2.592 -41.04,-10.151 -60.697,-14.471 -0.432,0.648 -0.864,1.08 -1.512,1.728 0.864,1.512 1.512,3.888 2.808,4.536 7.344,3.024 14.689,5.616 22.033,8.207 4.104,1.512 8.424,2.376 12.528,3.672 3.24,1.08 6.48,2.592 9.72,3.672 1.512,0.648 3.888,1.512 4.968,0.864 6.48,-3.888 9.936,-0.216 13.824,4.536 z m -47.952,16.416 v 0 c 1.08,-0.432 2.376,-0.648 3.456,-1.08 -8.425,-5.4 -2.808,-7.344 -0.216,-8.424 4.536,-1.728 9.504,-2.16 14.256,-3.024 3.24,-0.648 6.48,-0.864 11.88,-1.512 -11.88,-4.968 -25.92,-2.376 -33.48,4.968 -1.513,1.512 -2.593,4.536 -1.945,6.48 0.432,1.296 3.889,1.728 6.049,2.592 z m 8.64,14.687 v 0 l -0.864,-0.864 c -1.296,3.024 -3.024,6.048 -3.456,9.072 -1.08,6.912 -1.296,13.608 -1.728,20.52 0,1.296 1.728,2.808 3.024,4.103 0.432,0.432 1.728,-0.432 2.808,-0.648 -0.648,-1.295 -1.512,-2.591 -1.728,-4.103 -0.864,-3.888 -2.16,-7.992 -1.728,-11.88 0.648,-5.4 2.592,-10.8 3.888,-16.2 z"
           id="path13723"
           sodipodi:nodetypes="ccccccccsccccccscccccccscccccccccscccccccccccc" />
        <path
           style="fill:#9e8a7e"
           inkscape:connector-curvature="0"
           d="m 927.781,345.064 c -0.432,-12.096 -0.864,-24.191 -1.512,-36.287 -0.216,-2.376 -1.512,-4.752 -2.376,-7.128 -1.08,0.216 -2.16,0.648 -3.24,0.864 0.648,13.392 1.296,26.784 1.728,40.175 0,2.376 -0.648,6.048 -2.376,7.128 -12.312,7.992 -24.841,15.336 -38.449,23.543 -0.648,-5.616 -1.728,-11.447 -1.944,-17.495 -0.432,-12.528 -0.432,-25.056 -0.864,-37.583 -0.216,-4.104 1.296,-6.264 4.968,-8.208 17.928,-9.936 35.425,-19.871 55.297,-25.703 17.497,-5.184 34.777,-5.616 52.057,-1.944 11.232,2.376 22.033,5.616 33.049,8.64 -1.944,7.775 -3.24,15.767 -3.456,23.759 -0.432,9.504 0.432,18.791 2.16,28.079 -10.368,-3.24 -20.305,-6.264 -30.673,-7.344 -14.472,-1.512 -29.592,1.08 -44.281,1.728 -0.648,-6.696 -1.512,-14.903 -2.376,-22.895 0,-0.864 -1.728,-1.512 -3.672,-2.808 -2.16,10.584 3.24,21.599 -3.024,30.239 -0.864,0 -1.728,0 -2.592,0 -0.864,-11.232 -1.728,-22.463 -2.592,-33.695 -0.864,0 -1.728,0.216 -2.808,0.216 0,12.096 0,24.191 0,36.287 -1.08,0 -2.376,0.216 -3.456,0.216 z"
           id="path13725" />
        <path
           style="fill:#c4b79e"
           inkscape:connector-curvature="0"
           d="m 759.514,315.473 c 0,5.616 0,11.448 0,17.063 -1.08,0.216 -2.16,0.648 -3.024,0.864 -0.648,-1.944 -1.944,-3.888 -1.944,-5.615 -0.216,-9.072 0.216,-18.144 -0.216,-27.216 0,-2.376 -1.728,-4.536 -2.592,-6.696 -0.864,0.216 -1.512,0.648 -2.376,0.864 0,11.448 0,23.112 0,34.559 -0.432,0.432 -0.864,0.864 -1.296,1.296 -1.08,-1.944 -3.24,-3.671 -3.24,-5.615 -0.216,-11.016 0.216,-22.032 0.216,-33.264 0,-3.239 -0.648,-6.695 -0.864,-9.935 -1.296,0 -2.376,0.216 -3.672,0.216 0,13.607 0,26.999 0,40.607 -1.08,0.432 -1.945,0.648 -3.025,1.08 -1.512,-2.376 -4.32,-4.752 -4.32,-6.912 -0.216,-12.096 0,-24.192 1.08,-36.287 0.216,-3.24 2.592,-6.912 8.209,-5.4 16.2,4.752 32.616,8.856 49.032,13.392 18.793,5.183 37.801,9.935 56.594,15.551 9.072,2.808 17.712,6.912 27.432,10.8 0,19.655 0,39.743 0,61.774 -5.616,-1.944 -10.8,-3.888 -15.984,-5.832 -5.4,-2.16 -10.8,-4.319 -16.417,-6.263 -12.528,-4.32 -25.272,-8.64 -37.8,-12.96 -11.448,-3.888 -22.681,-7.992 -34.129,-11.88 -4.752,-1.512 -7.128,-3.888 -6.912,-9.504 0.216,-4.751 2.16,-10.367 -1.512,-14.471 -0.864,0 -1.728,0.216 -2.592,0.216 z"
           id="path13727" />
        <path
           style="fill:url(#Gradient_3-5)"
           inkscape:connector-curvature="0"
           d="m 611.551,621.969 c -0.432,1.728 -0.864,3.672 -1.728,6.048 -1.944,-0.432 -4.968,-0.216 -5.616,-1.296 -1.512,-2.376 -3.024,-5.832 -2.376,-7.992 1.08,-3.456 4.104,-6.48 6.48,-9.504 0.648,0.432 1.512,0.648 2.16,1.08 0.432,2.592 0.648,5.184 1.08,7.56 -0.216,-12.96 11.232,-13.824 18.792,-18.36 7.993,-4.751 15.985,-9.503 24.193,-13.823 1.944,-1.08 4.32,-1.728 6.48,-1.296 23.112,4.968 46.225,10.152 69.337,15.335 11.233,2.592 12.529,5.184 9.72,16.416 -2.808,11.016 -11.448,15.768 -20.088,20.951 -9.288,5.616 -18.576,11.232 -28.728,15.336 -4.752,1.944 -11.233,1.08 -16.417,-0.216 -16.416,-4.32 -32.616,-9.288 -48.601,-14.256 -7.56,-2.376 -15.336,-4.967 -14.688,-15.767 z"
           id="path13729" />
        <path
           style="fill:#ffffff"
           inkscape:connector-curvature="0"
           d="m 642.872,470.557 c -17.281,6.48 -33.913,14.687 -51.841,19.007 -7.992,1.944 -18.145,-2.592 -26.785,-5.832 -10.584,-3.887 -20.736,-9.287 -31.104,-13.823 -1.296,-0.648 -2.808,-0.864 -6.264,-1.944 1.944,3.24 2.376,5.616 3.672,6.264 16.632,7.128 33.048,15.119 50.329,20.735 13.176,4.32 25.704,-2.808 37.8,-7.992 8.64,-3.672 16.849,-7.991 25.057,-12.095 1.728,-0.864 4.32,-1.944 4.752,-3.24 1.512,-6.48 7.128,-4.752 8.856,-2.808 3.888,4.536 6.696,10.368 9.072,16.199 0.648,1.512 -2.16,5.4 -4.32,6.696 -16.2,9.72 -31.969,19.872 -49.033,28.08 -11.232,5.399 -23.328,1.079 -34.56,-3.24 -18.361,-7.128 -36.721,-14.472 -55.082,-21.816 -7.56,-3.024 -11.448,-23.327 -4.968,-28.727 8.857,-7.56 17.929,-12.744 30.889,-8.424 21.168,7.344 43.417,9.288 65.665,9.72 9.072,0.216 17.928,0 27.001,0 0.216,1.08 0.648,2.376 0.864,3.456 z m -39.529,34.127 v 0 c 2.376,-1.728 4.536,-3.24 6.696,-4.752 -0.648,-1.08 -1.08,-1.944 -1.728,-3.024 -4.968,2.376 -9.936,4.752 -15.12,7.344 3.24,4.536 5.616,7.56 9.72,12.96 2.808,-3.24 5.184,-6.048 8.424,-9.936 -4.32,-1.296 -6.048,-1.944 -7.776,-2.592 z"
           id="path13731" />
        <path
           style="fill:#737476"
           inkscape:connector-curvature="0"
           d="m 1074.016,527.795 c -18.145,-6.696 -36.937,-10.799 -57.457,-6.264 -8.64,1.944 -17.497,3.24 -26.353,4.968 -0.216,-3.024 -0.432,-7.128 -0.648,-11.231 -4.752,6.263 0.648,18.143 -11.88,19.223 -0.432,-3.888 -1.08,-8.208 -1.728,-12.312 -0.648,0 -1.296,0 -2.16,0 -0.432,2.808 -1.296,5.616 -0.864,8.208 1.08,7.344 -2.16,12.096 -7.776,16.2 -14.041,9.936 -27.865,20.087 -41.905,30.023 -15.768,11.448 -31.753,22.679 -47.737,34.127 -1.296,0.864 -2.376,1.728 -3.456,2.592 -0.864,-6.48 -1.728,-12.528 -2.808,-20.303 7.344,-4.968 16.632,-10.584 25.488,-17.28 21.601,-15.984 42.985,-32.399 64.586,-48.383 17.28,-12.959 35.856,-24.191 57.241,-27.647 10.584,-1.728 22.032,-0.432 33.048,1.08 7.992,1.08 15.769,4.104 23.329,7.128 l 4.104,1.728 c -0.432,6.048 -1.296,12.311 -3.024,18.359 z"
           id="path13733" />
        <path
           style="fill:#aaacae"
           inkscape:connector-curvature="0"
           d="m 670.952,710.958 c 0.432,-6.695 0.216,-12.095 1.08,-17.495 0.432,-1.944 2.376,-4.32 4.32,-5.4 22.249,-12.96 44.497,-26.135 66.962,-38.663 26.784,-15.12 53.785,-29.807 80.785,-44.711 2.16,-1.296 4.536,-2.16 7.776,-3.672 0.864,8.64 1.728,16.632 2.592,24.624 -54.865,27.647 -105.194,63.286 -163.515,85.317 z"
           id="path13735" />
        <path
           style="fill:#fdddcf"
           inkscape:connector-curvature="0"
           d="m 518.669,339.232 c -12.96,-36.719 -14.904,-40.391 -21.6,-38.231 4.968,13.392 9.936,26.784 14.688,40.175 0.648,1.944 -0.648,4.536 -1.08,6.696 -2.16,-1.08 -4.968,-1.512 -6.264,-3.024 -4.32,-6.264 -7.992,-13.176 -12.096,-19.655 -3.456,-5.4 -6.912,-10.8 -10.584,-15.984 -2.16,-3.24 -4.752,-4.32 -8.208,-0.864 -1.08,1.08 -3.24,0.864 -4.753,1.512 -1.728,0.864 -4.752,2.16 -4.752,3.456 -0.216,1.728 1.512,4.752 3.24,5.4 7.129,2.376 8.425,7.992 7.993,14.039 -0.216,2.376 -1.296,6.048 -2.592,6.48 -2.592,0.648 -6.049,-0.216 -8.425,-1.512 -4.968,-3.024 -9.504,-6.696 -15.336,-10.799 1.296,-3.672 1.944,-9.072 4.536,-13.176 4.536,-7.128 -1.944,-9.288 -4.968,-12.528 -3.024,-3.24 -6.696,-7.344 -12.96,-1.512 1.296,-4.536 1.296,-8.208 3.024,-10.799 13.824,-18.792 28.512,-27.216 53.137,-19.44 16.416,5.184 25.92,17.064 35.641,29.375 8.208,10.584 8.64,27 1.512,36.287 -1.296,-25.487 -9.073,-42.551 -19.225,-40.175 7.128,13.608 17.065,26.784 9.288,44.279 z"
           id="path13737" />
        <path
           style="fill:url(#Gradient_4-7)"
           inkscape:connector-curvature="0"
           d="m 710.049,831.483 c -13.392,-5.183 -24.408,-8.855 -34.993,-13.391 -2.16,-0.864 -4.536,-4.752 -4.536,-7.344 0.216,-21.816 0.864,-43.631 1.296,-65.23 0.216,-7.776 0,-15.336 0,-23.544 13.176,3.888 25.705,7.56 38.233,11.448 1.512,0.432 3.672,2.592 3.672,4.104 -1.08,30.671 -2.16,61.342 -3.456,93.957 z"
           id="path13739" />
        <path
           style="fill:url(#Gradient_5-0)"
           inkscape:connector-curvature="0"
           d="m 827.123,594.538 c -38.665,21.383 -76.033,41.902 -113.186,62.422 -11.016,6.048 -22.464,11.88 -32.617,19.439 -10.584,7.992 -20.088,8.424 -31.968,3.456 -25.705,-10.583 -51.841,-19.871 -77.762,-30.023 -11.664,-4.536 -23.328,-9.504 -34.776,-14.256 1.512,-5.183 38.233,-27.215 61.561,-36.719 0.864,5.832 1.728,10.368 -5.184,13.608 -7.344,3.456 -13.824,9.072 -20.305,14.04 -3.888,3.024 -4.32,5.616 0,9.935 8.641,8.424 19.441,11.232 30.025,15.552 9.288,3.672 18.36,8.208 27.865,11.448 8.856,3.024 18.36,6.912 27.432,6.912 9.504,0 19.44,-2.592 28.081,-6.696 14.472,-6.696 27.864,-15.768 41.904,-23.544 2.16,-1.296 4.968,-1.296 7.776,-1.944 2.161,-1.944 4.753,-4.535 7.561,-6.479 12.96,-8.64 26.136,-16.632 38.88,-25.272 7.56,-5.184 6.912,-10.8 -1.296,-15.119 -3.888,-1.944 -7.992,-3.24 -12.96,-7.128 2.376,-0.864 4.752,-2.592 6.912,-2.376 5.832,0.648 11.664,3.024 17.496,3.24 6.481,0.216 7.561,2.808 6.049,8.208 -1.08,4.103 -2.16,8.423 -3.24,12.527 6.264,1.728 6.264,1.728 10.368,-17.711 6.696,1.944 13.392,3.888 21.816,6.264 z"
           id="path13741" />
        <path
           style="fill:#ffffff"
           inkscape:connector-curvature="0"
           d="m 814.595,177.02 c 6.48,-16.415 12.96,-32.399 19.44,-48.382 1.728,-4.104 10.368,-5.4 15.337,-1.944 6.696,4.536 11.232,11.016 11.232,19.439 -0.216,16.2 -0.648,32.615 -1.728,48.815 -0.648,10.368 -8.208,19.656 -15.985,22.031 -0.864,-8.855 -2.16,-17.711 -2.16,-26.783 0,-6.264 -3.456,-8.208 -8.424,-9.288 -6.048,-1.296 -11.88,-2.376 -17.496,-3.672 z"
           id="path13743" />
        <path
           style="fill:url(#Gradient_6-9)"
           inkscape:connector-curvature="0"
           d="m 752.17,574.666 c -1.728,3.456 -3.024,6.264 -4.536,9.288 -10.153,-2.16 -20.089,-4.104 -30.241,-6.264 -14.256,-3.024 -28.512,-7.776 -42.985,-8.424 -7.128,-0.432 -14.688,6.048 -21.816,10.152 -11.88,6.696 -23.545,13.608 -36.073,20.951 -0.432,-5.183 -0.648,-9.071 -1.08,-14.255 18.793,-10.368 38.017,-22.032 58.537,-31.103 6.696,-3.024 16.633,0 24.625,2.16 13.608,3.671 27,9.071 40.392,13.607 4.105,1.296 8.209,2.376 13.393,3.888 z"
           id="path13745" />
        <path
           style="fill:#fffde9"
           inkscape:connector-curvature="0"
           d="m 721.713,434.054 c 7.344,-15.984 14.472,-32.183 22.465,-47.735 3.456,-6.912 11.664,-6.48 18.144,-5.832 4.752,0.432 9.288,3.24 15.12,5.4 -5.832,1.728 -10.584,2.808 -14.688,4.752 -4.752,2.16 -7.344,4.968 -5.616,11.448 1.296,5.183 -0.864,11.231 -1.728,16.847 -0.864,5.832 -1.728,11.664 -2.592,17.28 -9.936,6.696 -19.009,-1.512 -28.513,-0.216 -0.864,-0.648 -1.512,-1.296 -2.376,-1.944 z"
           id="path13747" />
        <path
           style="fill:url(#Gradient_7-0)"
           inkscape:connector-curvature="0"
           d="m 796.451,682.231 c -9.721,4.968 -19.441,9.936 -29.161,15.12 1.944,-6.912 4.968,-12.528 -3.888,-15.552 -7.992,-2.808 -18.792,0.864 -21.6,7.344 -2.592,6.264 0.432,10.368 11.664,14.472 -12.312,7.559 -23.761,15.335 -36.073,21.815 -3.24,1.728 -8.64,0.864 -12.744,-0.216 -9.072,-2.16 -17.928,-5.4 -27.865,-8.424 13.177,-6.911 25.273,-13.175 37.369,-19.439 20.088,-10.584 39.961,-21.168 60.049,-31.751 1.512,-0.864 3.24,-1.296 4.968,-1.944 l -0.216,-0.216 c -0.432,0.864 -0.864,1.728 -1.512,2.592 -3.672,4.32 -7.128,9.287 -3.456,14.471 3.672,5.184 9.072,7.776 15.552,2.808 1.512,-1.08 4.321,-0.648 6.697,-0.864 l -0.216,-0.216 z m -71.93,32.831 v 0 c 1.296,0.216 2.376,0.864 2.808,0.648 4.32,-3.24 8.64,-6.479 12.313,-10.583 0.432,-0.432 -2.809,-6.048 -5.617,-7.56 -8.424,-4.752 -19.224,0.432 -21.6,9.504 -1.944,7.127 0.864,9.935 7.992,8.423 1.512,-0.216 3.024,-0.216 3.888,-0.432 z"
           id="path13749" />
        <path
           style="fill:#ffffff"
           inkscape:connector-curvature="0"
           d="m 806.387,176.373 c -10.368,-2.808 -20.089,-5.616 -29.593,-8.208 -0.864,-0.216 -1.728,-0.648 -3.672,-1.512 11.016,-12.312 21.385,-24.192 31.969,-35.855 4.968,-5.616 10.584,-3.456 15.552,-0.648 5.4,3.024 4.752,7.992 2.376,12.743 -5.184,10.8 -10.584,21.6 -16.416,33.48 z"
           id="path13751" />
        <path
           style="fill:#fff8af"
           inkscape:connector-curvature="0"
           d="m 417.58,384.807 c 10.584,-11.016 14.256,-28.295 32.184,-29.807 -22.68,13.607 -29.592,34.343 -27.432,59.398 -2.592,1.296 -4.968,2.592 -7.993,4.104 -5.4,-5.184 -3.456,-11.448 -2.376,-17.711 0.432,-1.944 -0.864,-4.32 -1.296,-6.48 -1.512,1.296 -3.672,2.376 -4.536,4.104 -4.968,11.231 -1.296,23.327 9.288,29.591 6.481,3.888 6.049,-2.376 7.993,-7.776 3.24,4.536 6.048,8.208 9.072,12.312 -6.696,4.752 -12.96,3.888 -19.009,2.16 -3.672,-1.08 -7.128,-2.376 -10.368,-4.32 -1.728,-1.08 -3.672,-3.24 -3.888,-5.184 -4.536,-22.895 10.152,-56.159 31.105,-69.118 -3.672,5.184 -7.344,9.288 -9.72,14.039 -2.16,4.32 -9.289,7.992 -2.808,14.688 z"
           id="path13753" />
        <path
           style="fill:#ffffff"
           inkscape:connector-curvature="0"
           d="m 636.392,399.279 c 24.84,-18.792 49.897,-19.224 77.329,-1.944 -10.8,10.583 -46.657,11.663 -77.329,1.944 z"
           id="path13755" />
        <path
           style="fill:url(#Gradient_8-6)"
           inkscape:connector-curvature="0"
           d="m 779.602,663.656 c 10.8,-6.264 21.601,-12.528 32.401,-18.792 2.16,-1.296 5.184,-1.512 6.912,-3.24 6.48,-6.264 14.04,-6.264 22.032,-4.536 7.993,1.944 15.769,3.888 25.705,6.264 -12.096,7.56 -22.465,14.04 -34.129,21.384 4.536,-12.312 3.456,-16.2 -3.888,-18.144 -8.64,-2.16 -21.384,3.888 -22.464,11.448 -0.432,3.024 1.296,7.992 3.672,9.504 2.808,1.728 7.344,0.432 11.016,0.432 0.216,0.648 0.432,1.512 0.648,2.16 -8.424,3.887 -16.848,7.991 -25.273,11.879 l 0.217,0.216 c 0.432,-1.08 1.08,-2.16 1.296,-3.456 0.648,-3.672 2.376,-8.207 1.08,-11.231 -1.08,-2.376 -6.049,-3.456 -9.505,-4.104 -3.24,-0.648 -6.696,-0.216 -9.936,-0.216 l 0.216,0.216 z"
           id="path13757" />
        <path
           style="fill:#dcdddf"
           inkscape:connector-curvature="0"
           d="m 707.889,528.011 c -5.832,-11.663 -11.448,-22.031 -16.2,-32.831 -4.536,-9.936 -3.024,-12.528 7.56,-17.495 1.08,16.631 25.704,32.615 46.225,26.135 -6.048,4.104 -11.881,8.208 -17.929,12.096 -6.048,3.888 -12.096,7.559 -19.44,12.095 z"
           id="path13759" />
        <path
           style="fill:#c59894"
           inkscape:connector-curvature="0"
           d="m 710.697,293.873 c -1.512,-21.815 16.632,-30.887 27.432,-44.926 0.864,-1.296 2.592,-1.944 3.241,-3.456 7.56,-13.824 18.576,-12.96 31.104,-7.992 3.456,1.296 7.344,1.728 11.664,4.32 -7.992,3.456 -15.984,6.912 -23.76,10.368 -9.72,4.319 -19.657,8.855 -29.377,13.607 -1.296,0.648 -3.024,1.944 -3.024,3.24 -0.216,12.312 -12.528,15.984 -17.064,24.839 z"
           id="path13761" />
        <path
           style="fill:#fffde9"
           inkscape:connector-curvature="0"
           d="m 726.249,468.397 c 4.752,1.728 11.664,3.456 17.497,6.912 3.24,1.944 6.912,7.343 6.264,10.367 -0.864,4.104 -4.968,8.208 -8.856,10.368 -10.369,5.616 -19.009,-0.216 -27.001,-6.048 -4.32,-3.24 -9.504,-6.912 -7.992,-13.823 1.512,-7.128 7.776,-5.4 12.528,-6.48 1.728,-0.432 3.456,-0.648 7.56,-1.296 z"
           id="path13763" />
        <path
           style="fill:#c59894"
           inkscape:connector-curvature="0"
           d="m 864.708,208.556 c 1.512,-11.88 2.808,-22.68 4.32,-34.559 16.416,3.671 33.049,7.343 50.761,11.231 -19.224,7.992 -36.937,15.552 -54.865,23.112 z"
           id="path13765" />
        <path
           style="fill:#aa6969"
           inkscape:connector-curvature="0"
           d="m 685.857,339.448 c 8.208,-11.663 15.12,-22.247 22.68,-32.399 5.832,-7.776 12.528,-14.904 20.304,-23.975 0,14.255 0,26.351 0,38.879 -13.608,5.616 -27.216,11.231 -42.768,17.495 z"
           id="path13767" />
        <path
           style="fill:#c7eafb"
           inkscape:connector-curvature="0"
           d="m 678.728,659.768 c -11.016,4.752 -21.384,4.968 -31.752,1.512 -14.473,-4.968 -29.161,-9.936 -43.201,-16.2 -2.808,-1.296 -3.24,-7.992 -4.968,-12.527 12.096,-0.864 10.368,7.127 12.744,12.959 0.432,-2.592 0.864,-4.968 1.296,-6.48 21.385,6.696 42.985,13.608 65.881,20.736 z"
           id="path13769" />
        <path
           style="fill:#dec9c5"
           inkscape:connector-curvature="0"
           d="m 426.22,345.712 c -10.368,14.04 -20.305,26.135 -28.513,39.311 -7.128,11.232 -6.48,24.623 -6.264,37.583 0,2.16 -0.648,4.32 -1.08,6.48 -1.728,-1.944 -4.968,-3.888 -5.184,-6.048 -0.648,-6.48 -0.864,-12.96 0,-19.223 3.024,-24.192 16.416,-42.335 34.993,-57.239 1.512,-1.296 4.536,-0.648 6.048,-0.648 z"
           id="path13771" />
        <path
           style="fill:#d3363b"
           inkscape:connector-curvature="0"
           d="m 722.145,556.955 c -9.072,-2.16 -12.96,-9.936 -17.064,-16.632 -14.472,-23.327 -27.865,-47.303 -37.369,-73.438 -3.024,-8.64 -11.448,-15.552 -17.928,-22.679 -3.024,-3.24 -7.344,-5.4 -12.744,-9.504 3.456,-0.648 5.184,-1.512 6.264,-0.864 13.608,7.776 24.84,18.143 31.104,32.615 5.184,12.096 8.208,25.271 13.393,37.583 8.208,19.655 19.44,37.583 34.344,52.919 z"
           id="path13773" />
        <path
           style="fill:#fdddcf"
           inkscape:connector-curvature="0"
           d="m 761.458,471.637 c 12.528,-14.256 19.44,-27.864 -2.16,-39.095 6.696,-5.832 19.008,-3.456 21.6,3.888 6.912,18.359 3.672,24.623 -19.44,35.207 z"
           id="path13775" />
        <path
           style="fill:#c7eafb"
           inkscape:connector-curvature="0"
           d="m 743.962,596.913 c -25.921,-5.615 -51.841,-11.231 -78.842,-17.063 6.912,-7.128 14.04,-2.592 20.088,-1.512 18.793,3.24 37.153,7.776 55.73,12.096 1.944,0.432 3.24,2.592 4.968,3.888 -0.648,0.863 -1.296,1.727 -1.944,2.591 z"
           id="path13777" />
        <path
           style="fill:#c4b79e"
           inkscape:connector-curvature="0"
           d="m 543.51,391.719 c -6.264,7.56 -12.744,15.119 -19.656,23.111 -3.457,-1.728 -7.345,-3.672 -12.529,-6.48 6.696,-6.911 12.097,-14.039 18.793,-19.007 2.808,-2.16 8.64,-0.432 12.96,-0.432 0.216,0.864 0.216,1.728 0.432,2.592 z"
           id="path13779" />
        <path
           style="fill:#c4b79e"
           inkscape:connector-curvature="0"
           d="m 610.687,435.998 c 9.504,-7.776 14.688,-21.816 30.673,-15.12 -6.264,12.744 -20.521,20.088 -30.673,15.12 z"
           id="path13781" />
        <path
           style="fill:#d3363b"
           inkscape:connector-curvature="0"
           d="m 543.294,400.143 c 23.328,7.991 46.657,16.199 69.553,23.975 -6.696,2.16 -58.969,-14.688 -69.553,-23.975 z"
           id="path13783" />
        <path
           style="fill:#737476"
           inkscape:connector-curvature="0"
           d="m 855.852,624.345 c 0,-5.184 0.648,-9.72 -0.216,-13.824 -1.512,-7.776 1.512,-12.096 8.856,-14.039 3.888,12.959 1.08,22.247 -8.64,27.863 z"
           id="path13785" />
        <path
           style="fill:#c7eafb"
           inkscape:connector-curvature="0"
           d="m 587.575,623.913 c 11.88,2.16 10.152,10.367 9.072,19.007 -4.968,-2.16 -11.88,-0.864 -12.312,-9.503 0,-0.864 -3.672,-1.512 -6.913,-2.808 3.889,-2.592 7.345,-4.968 9.937,-6.912 z"
           id="path13787" />
        <path
           style="fill:#dec9c5"
           inkscape:connector-curvature="0"
           d="m 423.196,335.344 c -7.129,-7.343 -13.177,-13.391 -19.657,-19.871 11.016,-3.672 21.385,5.832 19.657,19.871 z"
           id="path13789" />
        <path
           style="fill:#fdddcf"
           inkscape:connector-curvature="0"
           d="m 763.834,408.134 c 13.392,-4.319 20.736,-1.296 23.976,9.936 -8.208,-5.184 -17.928,-2.592 -23.976,-9.936 z"
           id="path13791" />
        <path
           style="fill:#dec9c5"
           inkscape:connector-curvature="0"
           d="m 446.308,303.593 c 0.432,2.808 1.296,5.832 0.864,8.424 -0.648,4.536 -2.16,9.072 -3.456,13.392 -0.648,1.728 -1.944,3.024 -3.024,4.535 -0.864,-1.727 -2.592,-3.671 -2.376,-5.399 1.08,-6.912 2.808,-13.824 4.32,-20.736 1.296,0 2.592,0 3.888,-0.216 z"
           id="path13793" />
        <path
           style="fill:#c7eafb"
           inkscape:connector-curvature="0"
           d="m 740.506,624.345 c 0.432,-2.376 0.864,-4.32 1.512,-6.048 1.296,-4.536 2.808,-9.288 4.536,-15.336 3.024,1.728 6.48,2.592 7.56,4.752 1.944,4.104 -4.752,12.096 -13.608,16.632 z"
           id="path13795" />
        <path
           style="fill:#dec9c5"
           inkscape:connector-curvature="0"
           d="m 470.069,355.648 c -10.585,-2.592 -20.737,-4.968 -29.809,-7.128 8.424,-7.128 23.76,-4.32 29.809,7.128 z"
           id="path13797" />
        <path
           style="fill:#c59894"
           inkscape:connector-curvature="0"
           d="m 776.794,151.317 c -7.344,12.744 -10.152,13.608 -21.168,5.616 6.48,-1.728 12.96,-3.456 21.168,-5.616 z"
           id="path13799" />
        <path
           style="fill:url(#Gradient_9-2)"
           inkscape:connector-curvature="0"
           d="m 764.266,687.199 c -7.56,10.152 -9.72,10.8 -17.712,6.48 2.808,-9.72 10.368,-6.912 17.712,-6.48 z"
           id="path13801" />
        <path
           style="fill:url(#Gradient_10-9)"
           inkscape:connector-curvature="0"
           d="m 810.707,660.848 c 5.4,-6.264 10.368,-10.368 18.144,-5.832 -4.104,8.424 -7.344,9.504 -18.144,5.832 z"
           id="path13803" />
        <path
           style="fill:#c7eafb"
           inkscape:connector-curvature="0"
           d="m 762.538,601.881 c 2.592,-9.071 5.4,-9.287 16.2,-2.592 -4.32,7.128 -10.152,3.24 -16.2,2.592 z"
           id="path13805" />
        <path
           style="fill:#737476"
           inkscape:connector-curvature="0"
           d="m 851.316,629.529 c -4.969,-11.664 -4.104,-21.168 1.728,-25.056 -0.648,8.856 -1.296,17.064 -1.728,25.056 z"
           id="path13807" />
        <path
           style="fill:#fdddcf"
           inkscape:connector-curvature="0"
           d="m 762.754,399.711 c 7.56,-8.208 15.12,-7.128 21.168,0 -6.696,0 -14.04,0 -21.168,0 z"
           id="path13809" />
        <path
           style="fill:url(#Gradient_11-7)"
           inkscape:connector-curvature="0"
           d="m 610.903,590.866 c -0.216,5.616 3.24,12.959 -9.072,14.687 2.376,-6.048 4.536,-11.015 6.48,-15.983 0.864,0.432 1.728,0.864 2.592,1.296 z"
           id="path13811" />
        <path
           style="fill:#fdddcf"
           inkscape:connector-curvature="0"
           d="m 762.754,420.878 c 13.176,-4.32 26.568,3.672 27.216,16.848 -4.536,-14.688 -16.632,-14.256 -27.216,-16.848 z"
           id="path13813" />
        <path
           style="fill:#ffffff"
           inkscape:connector-curvature="0"
           d="m 702.921,551.123 c -5.4,-0.864 -10.152,-1.512 -17.281,-2.376 4.537,-3.024 7.561,-5.184 11.017,-7.776 2.16,3.672 4.104,6.696 6.264,10.152 z"
           id="path13815" />
        <path
           style="fill:#dec9c5"
           inkscape:connector-curvature="0"
           d="m 427.732,336.424 c 3.24,-0.864 6.48,-1.512 9.72,-2.376 0.432,0.432 1.08,1.08 1.512,1.512 -1.08,2.376 -2.592,6.696 -3.456,6.696 -3.024,-0.432 -5.616,-2.376 -8.424,-3.672 0.216,-0.648 0.432,-1.296 0.648,-2.16 z"
           id="path13817" />
        <path
           style="fill:url(#Gradient_12-6)"
           inkscape:connector-curvature="0"
           d="m 764.914,581.578 c -3.24,1.728 -6.48,3.456 -9.72,5.184 -0.432,-0.648 -0.864,-1.296 -1.512,-1.944 0.648,-2.16 1.296,-4.104 1.944,-6.264 2.808,0.216 5.4,0.432 7.992,0.648 0.432,0.864 0.864,1.512 1.296,2.376 z"
           id="path13819" />
        <path
           style="fill:#c7eafb"
           inkscape:connector-curvature="0"
           d="m 751.306,591.73 c 2.376,0.648 4.968,1.296 7.344,1.944 0.216,0.648 0.648,1.296 0.864,1.944 -2.376,1.08 -4.536,3.239 -6.912,3.239 -1.296,0 -2.376,-3.455 -3.672,-5.399 0.864,-0.648 1.512,-1.08 2.376,-1.728 z"
           id="path13821" />
        <path
           style="fill:url(#Gradient_13-8)"
           inkscape:connector-curvature="0"
           d="m 778.738,677.263 c 1.944,-7.991 4.32,-9.071 15.12,-6.263 -1.728,7.343 -7.56,9.719 -15.12,6.263 z"
           id="path13857" />
        <path
           style="fill:url(#Gradient_14-1)"
           inkscape:connector-curvature="0"
           d="m 718.257,709.662 c 3.24,-8.207 5.4,-8.855 15.768,-5.831 -3.024,8.639 -9.072,7.775 -15.768,5.831 z"
           id="path13859" />
      </g>
      <path
         style="fill:url(#Gradient_15-8)"
         inkscape:connector-curvature="0"
         d="m 225.552,276.162 c 0,16.631 -13.392,30.023 -30.025,30.023 -16.632,0 -30.024,-13.392 -30.024,-30.023 0,-16.632 13.392,-30.023 30.024,-30.023 16.633,0 30.025,13.391 30.025,30.023 z"
         id="path13865" />
      <path
         style="fill:url(#Gradient_16-3)"
         inkscape:connector-curvature="0"
         d="m 316.058,212.228 c 1.944,12.311 -8.425,22.895 -20.737,20.735 -7.344,-1.296 -13.392,-7.128 -14.688,-14.688 -1.944,-12.311 8.424,-22.895 20.736,-20.735 7.345,1.296 13.393,7.128 14.689,14.688 z"
         id="path13867" />
    </g>
  </g>
</svg>
